<?xml version="1.0" encoding="UTF-8"?>
<svg version="1.1" xmlns="http://www.w3.org/2000/svg" width="1457" height="1740">
<path d="M0 0 C0.71152222 0.05327454 1.42304443 0.10654907 2.15612793 0.16143799 C12.45532978 0.94159218 22.72908832 1.91180852 33 3 C34.30324219 3.13631836 35.60648438 3.27263672 36.94921875 3.41308594 C72.05819592 7.16485966 106.76022292 13.1437458 141.05639648 21.5279541 C144.11227739 22.27014048 147.17380472 22.98837311 150.234375 23.7109375 C191.23124205 33.52111839 231.34673162 47.21914439 270 64 C271.18899902 64.51481934 272.37799805 65.02963867 273.60302734 65.56005859 C286.91876954 71.34771932 300.14540228 77.24476471 313 84 C314.06557129 84.55671387 315.13114258 85.11342773 316.22900391 85.68701172 C368.30675019 112.9276378 418.38610554 145.1307692 463.046875 183.48046875 C465.89235657 185.90816136 468.77919283 188.2731706 471.6875 190.625 C476.13903808 194.24834495 480.42382455 198.01963872 484.66796875 201.8828125 C486.75823889 203.78051169 488.86986115 205.64733415 491 207.5 C506.71277362 221.21353404 521.73946997 235.58470471 536.4375 250.375 C537.86239098 251.80492593 539.28752021 253.23461448 540.71289062 254.6640625 C544.14466392 258.10666062 547.57325286 261.55239914 551 265 C550.0434578 266.12164994 549.08610792 267.24261112 548.12841797 268.36328125 C547.59538055 268.98759033 547.06234314 269.61189941 546.51315308 270.25512695 C542.46636865 274.92162447 538.00944419 279.18273706 533.3125 283.1875 C529.51664344 286.44430001 526.01376993 289.94611854 522.5 293.5 C518.4566489 297.58940294 514.37732641 301.52188964 509.98046875 305.234375 C506.51052621 308.3278938 503.32438193 311.71105221 500.1015625 315.05859375 C498 317 498 317 496 317 C496 317.66 496 318.32 496 319 C494.70703125 320.26953125 494.70703125 320.26953125 492.8125 321.8125 C488.8302314 325.18646469 485.16098009 328.78730817 481.5 332.5 C477.4915002 336.55522954 473.44129394 340.43983325 469.08984375 344.12890625 C465.72580915 347.1408176 462.59599226 350.38423089 459.42382812 353.59570312 C456.09401668 356.9507723 452.6605969 360.09733029 449.05859375 363.16015625 C446.43501277 365.50495064 443.97009896 367.99630568 441.5 370.5 C437.86133871 374.18815005 434.13437656 377.68006625 430.18359375 381.03125 C426.64366542 384.22288485 423.33940295 387.65569003 420.03540039 391.08959961 C418.72640303 392.42935168 417.36687126 393.71934677 416 395 C415.34 395 414.68 395 414 395 C414 395.66 414 396.32 414 397 C412.6015625 398.375 412.6015625 398.375 410.625 400 C407.25204852 402.86045355 404.10326523 405.84869661 401 409 C398.14476317 411.88989828 395.28499804 414.68451745 392.1875 417.3125 C388.42865186 420.52238858 384.97256776 423.98789261 381.5 427.5 C377.4566431 431.58939569 373.37732658 435.5218895 368.98046875 439.234375 C365.51052621 442.3278938 362.32438193 445.71105221 359.1015625 449.05859375 C357 451 357 451 355 451 C355 451.66 355 452.32 355 453 C354.34 453 353.68 453 353 453 C353 453.66 353 454.32 353 455 C351.63671875 456.33984375 351.63671875 456.33984375 349.6875 457.9375 C345.59362433 461.40823707 341.83409176 465.13330253 338.06689453 468.953125 C335.48136673 471.55917995 332.85886786 474.05971527 330.0625 476.4375 C326.52304624 479.45366696 323.26638774 482.69561333 320 486 C312.7883492 493.25114506 312.7883492 493.25114506 309.5 496.3125 C308.9121875 496.86550781 308.324375 497.41851563 307.71875 497.98828125 C306 499 306 499 304.140625 499.01953125 C300.89427144 497.47336651 298.68675917 494.95007529 296.25 492.375 C295.16975039 491.26519011 294.08772383 490.157107 293.00390625 489.05078125 C292.48328613 488.51791504 291.96266602 487.98504883 291.42626953 487.43603516 C288.44545757 484.43481367 285.2193944 481.73839829 282 479 C280.88807657 478.02616082 279.77753246 477.05074568 278.66796875 476.07421875 C270.91399882 469.26605377 263.01302735 462.73339016 254.83984375 456.43652344 C252.96642596 454.97378587 251.12252427 453.47950739 249.28125 451.9765625 C228.41013843 435.10644992 205.32895797 420.23142296 182 407 C181.17258301 406.53062012 180.34516602 406.06124023 179.49267578 405.57763672 C164.82814104 397.30682803 149.91063858 389.73856757 134.625 382.6875 C133.72152832 382.26654053 132.81805664 381.84558105 131.88720703 381.41186523 C126.04109521 378.7473729 120.20088977 376.6799988 114 375 C114 374.34 114 373.68 114 373 C113.30487305 372.88068115 112.60974609 372.7613623 111.89355469 372.63842773 C108.70209204 371.93427022 105.77031891 370.91392171 102.703125 369.78515625 C101.4965625 369.34623047 100.29 368.90730469 99.046875 368.45507812 C96.53020632 367.53340341 94.01504384 366.60775312 91.5 365.68164062 C85.69480658 363.57262621 80.05508021 361.64621614 73.99291992 360.45532227 C71.25284442 359.82929742 68.72868739 358.80274265 66.11767578 357.77636719 C61.97947537 356.25924967 57.70308111 355.21940309 53.4375 354.125 C52.42937256 353.865979 51.42124512 353.60695801 50.38256836 353.34008789 C22.39791006 346.23677534 -6.16114734 340.95999597 -35 339 C-36.79715454 338.87189941 -36.79715454 338.87189941 -38.63061523 338.74121094 C-118.63390048 333.33430914 -201.55003611 345.24157753 -277.13574219 384.02294922 C-279.08462168 385.04434992 -281.04510611 386.04061156 -283.0078125 387.03515625 C-310.65769791 401.18236628 -335.90487272 419.28437069 -359 440 C-360.06553101 440.94238525 -360.06553101 440.94238525 -361.15258789 441.90380859 C-367.66205006 447.69488868 -373.90036838 453.71716255 -380.0625 459.875 C-380.99126953 460.79152344 -381.92003906 461.70804688 -382.87695312 462.65234375 C-389.02675227 468.78919595 -394.58875293 475.20919894 -400 482 C-400.86346892 483.02748225 -401.73186191 484.05089203 -402.609375 485.06640625 C-438.92410851 527.41150609 -463.48104892 579.10420985 -480 632 C-480.28713867 632.91410645 -480.57427734 633.82821289 -480.87011719 634.77001953 C-506.83542938 718.44472584 -507.88367718 814.35833321 -475 935 C-474.70125977 935.92603027 -474.40251953 936.85206055 -474.09472656 937.80615234 C-467.79096092 957.24337604 -459.4175294 976.00824992 -449.97705078 994.11962891 C-448.9598889 996.07719532 -447.96217549 998.04398465 -446.96484375 1000.01171875 C-424.29220645 1044.28255965 -390.46469185 1088.45071247 -351 1119 C-349.14269596 1120.57965191 -347.28872867 1122.16323257 -345.4375 1123.75 C-284.80541569 1174.27673693 -207.2396022 1202.51148057 -129.4375 1211.3125 C-128.35982361 1211.43446747 -128.35982361 1211.43446747 -127.26037598 1211.55889893 C-110.07248955 1213.47399065 -93.03503716 1214.23974048 -75.75 1214.25 C-74.72009949 1214.25067474 -73.69019897 1214.25134949 -72.62908936 1214.25204468 C-18.58178337 1214.19624409 34.71555309 1205.08744718 86 1188 C87.12921875 1187.6302002 87.12921875 1187.6302002 88.28125 1187.25292969 C144.63116276 1168.71552173 196.4805496 1139.21105568 244 1104 C244.71542969 1103.47438477 245.43085937 1102.94876953 246.16796875 1102.40722656 C246.87566406 1101.88354492 247.58335938 1101.35986328 248.3125 1100.8203125 C249.26576172 1100.11672607 249.26576172 1100.11672607 250.23828125 1099.39892578 C251.96059797 1098.03128792 253.45599356 1096.56277222 255 1095 C257.07179305 1093.35744584 259.15425612 1091.73628896 261.25 1090.125 C273.20376889 1080.81237948 284.41535059 1070.7598971 295.36645508 1060.29223633 C296.38195435 1059.32386841 296.38195435 1059.32386841 297.41796875 1058.3359375 C298.01375732 1057.76407715 298.6095459 1057.1922168 299.22338867 1056.60302734 C301.06785074 1054.93877862 302.99164575 1053.46037031 305 1052 C305.4125 1052.41773682 305.825 1052.83547363 306.25 1053.26586914 C308.16388778 1055.20085027 310.08191671 1057.13167801 312 1059.0625 C312.97259766 1060.04766602 312.97259766 1060.04766602 313.96484375 1061.05273438 C314.61582031 1061.70693359 315.26679687 1062.36113281 315.9375 1063.03515625 C316.52402344 1063.6269165 317.11054687 1064.21867676 317.71484375 1064.82836914 C319.65492022 1066.67206361 321.63348972 1068.41613462 323.66210938 1070.15991211 C328.48622159 1074.35827016 332.97101194 1078.86356729 337.46875 1083.40625 C338.34849487 1084.28978149 339.22823975 1085.17331299 340.13464355 1086.08361816 C343.39656945 1089.3597232 346.65392564 1092.6403498 349.91094971 1095.92132568 C353.1148726 1099.14830538 356.32269116 1102.3713808 359.53125 1105.59375 C360.36168823 1106.43248657 361.19212646 1107.27122314 362.04772949 1108.13537598 C366.23361335 1112.33866476 370.49625364 1116.35058425 374.99279785 1120.21765137 C378.83715775 1123.63135318 382.41629459 1127.31566254 386.03125 1130.96875 C386.86660278 1131.8078894 387.70195557 1132.64702881 388.56262207 1133.51159668 C392.10336129 1137.0685452 395.63807324 1140.6314612 399.17333984 1144.19384766 C401.7697206 1146.80840164 404.36916566 1149.41988184 406.96875 1152.03125 C407.75544067 1152.82623901 408.54213135 1153.62122803 409.35266113 1154.44030762 C413.44434639 1158.54990916 417.62349741 1162.46000615 422.0177002 1166.24255371 C425.6253461 1169.44098206 428.98662629 1172.8851316 432.375 1176.3125 C433.14376465 1177.08505127 433.9125293 1177.85760254 434.70458984 1178.65356445 C437.9585983 1181.92376036 441.20656266 1185.1999349 444.45507812 1188.47558594 C446.84295352 1190.88165285 449.23390793 1193.28463038 451.625 1195.6875 C452.706604 1196.78155151 452.706604 1196.78155151 453.81005859 1197.89770508 C457.09265827 1201.19592167 460.40280845 1204.39699843 463.93164062 1207.43164062 C468.6788516 1211.52440429 473.06075259 1215.95420469 477.46875 1220.40625 C478.34849487 1221.28978149 479.22823975 1222.17331299 480.13464355 1223.08361816 C483.39656945 1226.3597232 486.65392564 1229.6403498 489.91094971 1232.92132568 C493.1148726 1236.14830538 496.32269116 1239.3713808 499.53125 1242.59375 C500.36168823 1243.43248657 501.19212646 1244.27122314 502.04772949 1245.13537598 C506.28441345 1249.38967609 510.59727318 1253.46267107 515.14953613 1257.37661743 C518.04709345 1259.91859846 520.75749999 1262.63331209 523.46875 1265.37109375 C524.31741638 1266.22188255 524.31741638 1266.22188255 525.18322754 1267.08985901 C526.95788577 1268.87003423 528.72900099 1270.65368519 530.5 1272.4375 C531.71591114 1273.6584369 532.93205516 1274.87914192 534.1484375 1276.09960938 C537.10164966 1279.06374013 540.05169398 1282.03098958 543 1285 C541.11921616 1289.0584761 538.42166955 1292.02480367 535.375 1295.25 C534.83955566 1295.82194092 534.30411133 1296.39388184 533.75244141 1296.9831543 C532.17485299 1298.66179736 530.58925665 1300.33240692 529 1302 C528.175 1302.86753906 527.35 1303.73507812 526.5 1304.62890625 C522.5686436 1308.66866402 522.5686436 1308.66866402 521 1310 C520.34 1310 519.68 1310 519 1310 C518.7421875 1310.59554688 518.484375 1311.19109375 518.21875 1311.8046875 C516.89188606 1314.1947437 515.60890657 1315.40503112 513.5 1317.125 C510.1647454 1319.9406316 507.06295172 1322.88978051 504 1326 C500.4882345 1329.54918157 496.90991099 1332.91968457 493.1171875 1336.1640625 C490.59400545 1338.3520617 488.14445481 1340.61293113 485.6875 1342.875 C481.22126486 1346.94859909 476.63078621 1350.80827703 471.92578125 1354.6015625 C469.27768561 1356.77236453 466.68853577 1358.99294623 464.10766602 1361.2421875 C457.0927862 1367.34672431 449.83564736 1373.04818202 442.4140625 1378.6484375 C439.44405381 1380.89141967 436.5043485 1383.16685234 433.5859375 1385.4765625 C423.65782002 1393.32779099 413.47012284 1400.62344739 402.96044922 1407.67529297 C400.6344644 1409.24699828 398.34567975 1410.86686439 396.0625 1412.5 C348.43924545 1445.96051276 295.9808951 1473.38199061 242 1495 C241.3415509 1495.26445923 240.68310181 1495.52891846 240.00469971 1495.8013916 C194.65372364 1514 194.65372364 1514 186 1514 C185.67 1514.66 185.34 1515.32 185 1516 C182.94873047 1516.72412109 182.94873047 1516.72412109 180.2421875 1517.3984375 C179.24026367 1517.65592773 178.23833984 1517.91341797 177.20605469 1518.17871094 C176.14805664 1518.44973633 175.09005859 1518.72076172 174 1519 C171.95927865 1519.56961083 169.92023683 1520.14526892 167.8828125 1520.7265625 C116.2547903 1535.28722703 63.63567851 1546.3414033 10.06103516 1550.45654297 C5.89717256 1550.68169673 5.89717256 1550.68169673 2 1552 C0.49587023 1552.14100081 -1.01372872 1552.22586946 -2.5234375 1552.28125 C-3.46445312 1552.31863281 -4.40546875 1552.35601563 -5.375 1552.39453125 C-6.365 1552.42933594 -7.355 1552.46414063 -8.375 1552.5 C-10.27868118 1552.57198794 -12.18232583 1552.64494687 -14.0859375 1552.71875 C-15.70218018 1552.77905396 -15.70218018 1552.77905396 -17.35107422 1552.84057617 C-19.94473768 1552.95389494 -22.53087948 1553.08788489 -25.12158203 1553.24731445 C-41.11416849 1554.20307637 -57.11027212 1554.20056368 -73.125 1554.1875 C-73.85818451 1554.18723312 -74.59136902 1554.18696625 -75.34677124 1554.18669128 C-96.58729563 1554.1769903 -117.74154517 1554.05473566 -138.91656494 1552.18035889 C-141.17198492 1551.9851116 -143.42827 1551.80420351 -145.68505859 1551.62548828 C-195.54547974 1547.6491429 -244.55602162 1539.39501215 -293 1527 C-294.79824219 1526.54052979 -294.79824219 1526.54052979 -296.6328125 1526.07177734 C-340.81148094 1514.6379525 -383.4876146 1498.88409919 -425 1480 C-426.19882812 1479.46503906 -427.39765625 1478.93007812 -428.6328125 1478.37890625 C-458.64427814 1464.83153109 -487.0979135 1448.40648277 -515 1431 C-516.06734375 1430.33742188 -517.1346875 1429.67484375 -518.234375 1428.9921875 C-553.91015808 1406.61374175 -587.50306832 1380.16696594 -618.33666992 1351.51977539 C-619.55709911 1350.40467607 -620.79106146 1349.30434103 -622.0324707 1348.21264648 C-629.51750498 1341.60298195 -636.56652266 1334.58558855 -643.61450195 1327.51586914 C-645.69044426 1325.43454811 -647.77170422 1323.35865187 -649.85351562 1321.28320312 C-651.19823752 1319.93782062 -652.54264929 1318.59212806 -653.88671875 1317.24609375 C-654.80260017 1316.33324867 -654.80260017 1316.33324867 -655.73698425 1315.40196228 C-659.46936063 1311.64957179 -663.01298684 1307.7770305 -666.46934509 1303.76876831 C-668.55329717 1301.36063021 -670.71413973 1299.02661306 -672.875 1296.6875 C-676.97199927 1292.19501362 -680.86120426 1287.58092718 -684.67578125 1282.84765625 C-686.67270898 1280.40100025 -688.71543213 1278.00412609 -690.78320312 1275.61743164 C-698.02082011 1267.23017134 -704.58206724 1258.35780001 -711.171875 1249.45849609 C-712.88349091 1247.15668356 -714.60936204 1244.86671396 -716.34375 1242.58203125 C-722.18110774 1234.88922765 -727.74630413 1227.10814074 -733 1219 C-733.94966276 1217.56323455 -734.90025784 1216.1270851 -735.8515625 1214.69140625 C-761.48237811 1175.85309784 -783.95714883 1134.90751069 -802 1092 C-802.46390137 1090.90059082 -802.92780273 1089.80118164 -803.40576172 1088.66845703 C-809.86189658 1073.29639334 -815.71985 1057.81160984 -821 1042 C-821.42624923 1040.73246829 -821.85286298 1039.46505912 -822.27978516 1038.19775391 C-823.64886852 1034.13317671 -825.01342617 1030.06709872 -826.375 1026 C-826.5924588 1025.35066498 -826.8099176 1024.70132996 -827.03396606 1024.03231812 C-827.65732104 1022.16800112 -828.27792212 1020.30276404 -828.8984375 1018.4375 C-829.25599121 1017.36371094 -829.61354492 1016.28992187 -829.98193359 1015.18359375 C-844.94619135 968.38888843 -854.12368302 919.36084689 -859.75 870.625 C-859.85114105 869.76106628 -859.9522821 868.89713257 -860.05648804 868.00701904 C-863.36453098 839.41922113 -864.35448802 810.99455854 -864.31567383 782.24584961 C-864.31106482 778.55985231 -864.3179031 774.87418685 -864.33618164 771.18823242 C-864.50564398 736.60956514 -862.81987126 702.29191577 -858.1875 668 C-858.06027557 667.03214569 -857.93305115 666.06429138 -857.80197144 665.06710815 C-855.45772115 647.25423879 -852.57274872 629.60726163 -849 612 C-848.62004883 610.09299316 -848.62004883 610.09299316 -848.23242188 608.14746094 C-831.16370233 523.29581878 -799.1993469 440.5442294 -708.39648438 298.83740234 C-707.09895185 297.13019434 -705.80695718 295.41893015 -704.515625 293.70703125 C-695.46055366 281.79635735 -686.03276756 270.13498176 -675.921875 259.1015625 C-674.18256911 257.19963858 -672.49236869 255.26680268 -670.8125 253.3125 C-660.59423466 241.61882888 -649.70475557 230.54073407 -638.71142578 219.58105469 C-636.60200343 217.47706263 -634.49807561 215.36767965 -632.39453125 213.2578125 C-631.02636265 211.89030378 -629.65788439 210.5231048 -628.2890625 209.15625 C-627.67431061 208.53947388 -627.05955872 207.92269775 -626.42617798 207.28723145 C-622.65815514 203.53917493 -618.77001718 199.97965811 -614.74589539 196.50778198 C-612.52223863 194.58739796 -610.35593022 192.60734777 -608.1875 190.625 C-603.4730502 186.37485207 -598.60532498 182.35247399 -593.67089844 178.36181641 C-591.75260238 176.79836588 -589.84847135 175.21855933 -587.9453125 173.63671875 C-579.78831147 166.86157507 -571.57843607 160.23981597 -563 154 C-562.35514648 153.52771973 -561.71029297 153.05543945 -561.04589844 152.56884766 C-524.59680707 125.88380684 -486.45018574 102.11134094 -446 82 C-445.37830933 81.6908667 -444.75661865 81.3817334 -444.11608887 81.06323242 C-429.90356066 74.00941139 -415.65026544 67.02641155 -400.90039062 61.15673828 C-398.74220155 60.29600597 -396.58784242 59.4256581 -394.43554688 58.55029297 C-360.50495591 44.75125884 -325.6204502 32.64211454 -290 24 C-288.68418561 23.67683592 -287.36843382 23.35341688 -286.05273438 23.02978516 C-267.47079899 18.47309988 -248.849115 14.31064914 -230 11 C-228.86755859 10.79810059 -227.73511719 10.59620117 -226.56835938 10.38818359 C-152.12909017 -2.73792724 -75.35978865 -5.69407076 0 0 Z M-74 67 C-74 133.33 -74 199.66 -74 268 C-57.665 268.495 -57.665 268.495 -41 269 C-35.32454188 269.34666438 -29.71357221 269.71130246 -24.0625 270.25 C-23.38340576 270.31280151 -22.70431152 270.37560303 -22.00463867 270.44030762 C16.32660197 274.01185366 54.01250448 281.36017155 91 292 C92.76706299 292.50587646 92.76706299 292.50587646 94.56982422 293.02197266 C143.63017048 307.23483524 191.49039244 327.96830342 235.23339844 354.33447266 C237.9838104 355.99025367 240.74417664 357.62812264 243.5078125 359.26171875 C252.51237472 364.59830686 261.37595489 370.06176131 270 376 C271.25094025 376.84949141 272.5022676 377.69841295 273.75390625 378.546875 C275.10713831 379.46821049 276.45999581 380.39009633 277.8125 381.3125 C278.48289307 381.76850586 279.15328613 382.22451172 279.84399414 382.69433594 C283.36636835 385.11204028 286.80775135 387.59455216 290.1796875 390.21875 C290.85281982 390.73655029 291.52595215 391.25435059 292.21948242 391.7878418 C293.50537986 392.7840494 294.77969093 393.79544501 296.0402832 394.82348633 C297.9591234 396.36899732 297.9591234 396.36899732 301 398 C305.97882302 396.90613571 308.91594516 393.45514161 312.33203125 389.92578125 C312.92747238 389.3237236 313.52291351 388.72166595 314.13639832 388.10136414 C316.03569197 386.17873729 317.92454748 384.24625905 319.8125 382.3125 C322.29435576 379.7839796 324.78053876 377.25977591 327.26953125 374.73828125 C327.86802887 374.1311026 328.46652649 373.52392395 329.0831604 372.89834595 C332.63542723 369.31422689 336.27099611 365.91111424 340.1237793 362.64916992 C344.11311322 359.1426051 347.7761106 355.2836629 351.5 351.5 C360.45392612 342.40235115 360.45392612 342.40235115 364.94921875 338.55078125 C370.01051758 334.20693132 374.63375593 329.43530302 379.3125 324.6875 C381.0770879 322.89743068 382.84391304 321.10956319 384.61328125 319.32421875 C385.38454346 318.54135498 386.15580566 317.75849121 386.95043945 316.9519043 C389 315 389 315 392 313 C392 312.34 392 311.68 392 311 C392.55848633 310.76821045 393.11697266 310.5364209 393.69238281 310.29760742 C396.60499328 308.65980329 398.58190794 306.62461285 400.921875 304.23828125 C401.38555481 303.76939987 401.84923462 303.30051849 402.32696533 302.81742859 C403.80617025 301.32048402 405.27852701 299.81704251 406.75 298.3125 C408.67879306 296.34678763 410.61084608 294.38436773 412.546875 292.42578125 C413.01794678 291.9491655 413.48901855 291.47254974 413.97436523 290.98149109 C417.23884545 287.70320916 420.62527192 284.63189425 424.14160156 281.62915039 C427.41279211 278.7614869 430.44666502 275.65842441 433.5 272.5625 C434.13164063 271.92634766 434.76328125 271.29019531 435.4140625 270.63476562 C436.94505774 269.09217194 438.47287667 267.54642686 440 266 C439.34 265.67 438.68 265.34 438 265 C437.71382812 264.40832031 437.42765625 263.81664062 437.1328125 263.20703125 C433.73091721 256.57920077 426.49159196 251.47697808 420.8984375 246.6796875 C419.02029247 245.01795424 417.25694484 243.28874475 415.5 241.5 C412.59658967 238.55761772 409.58956541 235.80128055 406.453125 233.109375 C404.44829285 231.38547474 402.46383225 229.64337876 400.484375 227.890625 C399.21898581 226.78098104 397.95335933 225.67160761 396.6875 224.5625 C395.77085571 223.74519409 395.77085571 223.74519409 394.83569336 222.91137695 C391.42783958 219.74980638 391.42783958 219.74980638 387 219 C386.79632812 218.443125 386.59265625 217.88625 386.3828125 217.3125 C384.47645943 214.12447454 381.79445963 212.20315505 378.875 210 C378.25173828 209.52143555 377.62847656 209.04287109 376.98632812 208.54980469 C375.66137911 207.5353288 374.33349995 206.52466997 373.00292969 205.51757812 C371.09044409 204.0685276 369.18896184 202.60611765 367.2890625 201.140625 C341.92250357 181.70395397 314.75045012 164.79934427 286.72705078 149.49267578 C284.4129411 148.22602703 282.1091616 146.94332215 279.80859375 145.65234375 C204.91449105 104.17297404 117.6961126 82.17190243 -15.96484375 68.42578125 C-16.64528748 68.38261276 -17.3257312 68.33944427 -18.02679443 68.29496765 C-23.47274303 67.97317068 -28.87963438 67.96709589 -34.33267212 68.0193634 C-38.13452052 68.04205483 -41.84432267 67.88942599 -45.625 67.5 C-55.05583931 66.76032633 -64.54019835 67 -74 67 Z M291.25 1155.875 C267.36061934 1176.28400453 241.1718052 1193.33055025 214 1209 C213.18192871 1209.474375 212.36385742 1209.94875 211.52099609 1210.4375 C162.28642099 1238.8308163 107.27928757 1257.49131773 52 1270 C52 1270.66 52 1271.32 52 1272 C51.34386719 1271.80148437 50.68773437 1271.60296875 50.01171875 1271.3984375 C46.04971176 1270.87428093 42.65207449 1271.74268452 38.8125 1272.625 C16.01544559 1277.44995384 -7.06434103 1280.19286797 -30.25 1282.3125 C-31.17392548 1282.39967285 -32.09785095 1282.4868457 -33.04977417 1282.57666016 C-33.95430328 1282.66093262 -34.8588324 1282.74520508 -35.79077148 1282.83203125 C-36.57540268 1282.90566895 -37.36003387 1282.97930664 -38.16844177 1283.05517578 C-50.30613807 1284.03751376 -61.66530218 1284 -74 1284 C-74 1350.33 -74 1416.66 -74 1485 C2.96520278 1483.36244249 77.97742288 1476.60124258 152 1455 C153.19383301 1454.65275879 154.38766602 1454.30551758 155.61767578 1453.94775391 C187.28716172 1444.63080072 218.08026019 1432.9503964 248 1419 C249.49442627 1418.31043213 249.49442627 1418.31043213 251.01904297 1417.60693359 C282.2011232 1403.1896326 312.41860126 1386.04842844 340.72314453 1366.56396484 C342.88831449 1365.07671643 345.06469315 1363.60783421 347.24609375 1362.14453125 C356.4404875 1355.94811677 365.2672319 1349.33321695 374.02197266 1342.53271484 C375.86657549 1341.1033867 377.71823537 1339.68403528 379.57421875 1338.26953125 C385.6632545 1333.62550151 391.65864766 1328.8856905 397.5625 1324.0078125 C399.28280605 1322.59076553 401.0366021 1321.21391007 402.8125 1319.8671875 C403.534375 1319.25101563 404.25625 1318.63484375 405 1318 C405 1317.34 405 1316.68 405 1316 C405.69480469 1315.78730469 406.38960937 1315.57460937 407.10546875 1315.35546875 C410.79597505 1313.62725595 413.41709348 1311.1097282 416.3125 1308.3125 C417.46269935 1307.22306835 418.61373881 1306.13452295 419.765625 1305.046875 C420.59610352 1304.25893555 420.59610352 1304.25893555 421.44335938 1303.45507812 C423.98838978 1301.07609739 426.64315449 1298.83032754 429.31640625 1296.59765625 C431.44904266 1294.57387831 433.18018257 1292.30519587 435 1290 C431.48259521 1286.43326807 427.95875538 1282.87307049 424.42871094 1279.31884766 C423.22801105 1278.10807151 422.0291098 1276.89550899 420.83203125 1275.68115234 C419.11404252 1273.93898662 417.38975125 1272.20328456 415.6640625 1270.46875 C415.12754059 1269.92190552 414.59101868 1269.37506104 414.03823853 1268.81164551 C412.72957713 1267.50258902 411.36903374 1266.24578094 410 1265 C409.34 1265 408.68 1265 408 1265 C407.73646729 1264.40977051 407.47293457 1263.81954102 407.20141602 1263.21142578 C405.95023299 1260.90839473 404.65195022 1259.43638558 402.77734375 1257.6171875 C402.15666016 1257.00746094 401.53597656 1256.39773438 400.89648438 1255.76953125 C400.25001953 1255.14433594 399.60355469 1254.51914063 398.9375 1253.875 C397.6527607 1252.62463926 396.37010319 1251.37213484 395.08984375 1250.1171875 C394.52128662 1249.56659668 393.95272949 1249.01600586 393.36694336 1248.44873047 C392 1247 392 1247 391 1245 C390.34 1245 389.68 1245 389 1245 C388.7525 1244.4225 388.505 1243.845 388.25 1243.25 C386.81700012 1240.67060021 385.21575324 1238.93878408 383 1237 C382.34 1237 381.68 1237 381 1237 C380.64020805 1236.15223244 380.64020805 1236.15223244 380.27314758 1235.28733826 C378.73142141 1232.51747144 376.87852819 1230.63895605 374.62963867 1228.40258789 C373.7249736 1227.49807388 372.82030853 1226.59355988 371.88822937 1225.66163635 C370.89824535 1224.68187239 369.90815585 1223.70221498 368.91796875 1222.72265625 C367.90103659 1221.70945881 366.88454848 1220.6958155 365.8684845 1219.68174744 C363.19347294 1217.01436202 360.51251732 1214.35302989 357.83026123 1211.69293213 C355.1143887 1208.99744251 352.4040888 1206.29636315 349.69335938 1203.59570312 C344.91140784 1198.83287297 340.12457941 1194.07500113 335.33415222 1189.32069397 C331.41014238 1185.41930918 327.53345371 1181.53595732 323.875 1177.3828125 C318.77494042 1171.68436285 313.41773673 1166.27000497 308 1160.875 C307.03759341 1159.90902052 306.07535307 1158.94287539 305.11328125 1157.9765625 C304.20964844 1157.07421875 303.30601562 1156.171875 302.375 1155.2421875 C301.55773438 1154.4260498 300.74046875 1153.60991211 299.8984375 1152.76904297 C296.23896352 1149.35899301 294.37597294 1153.16997767 291.25 1155.875 Z " fill="#FE7B06" transform="translate(898,55)"/>
<path d="M0 0 C1.06397003 -0.00100708 2.12794006 -0.00201416 3.22415161 -0.00305176 C20.69922559 0.00810405 37.74033993 0.80116717 55.0625 3.25 C56.12791016 3.39453613 57.19332031 3.53907227 58.29101562 3.68798828 C112.45633249 11.16677744 166.16243391 28.81417398 213.0625 57.25 C213.81950195 57.70793945 214.57650391 58.16587891 215.35644531 58.63769531 C231.4440905 68.44468195 246.83088959 79.16501998 261.49853516 90.99023438 C262.96608785 92.17234051 264.44175762 93.34434941 265.91796875 94.515625 C272.13321049 99.50216815 278.00757295 104.78766195 283.8203125 110.23046875 C285.85615494 112.13642807 287.91031026 114.00624675 289.9921875 115.86328125 C301.47794293 126.1195317 312.2409569 137.33714201 321.80859375 149.41015625 C323.52381073 151.5712702 325.26254433 153.69541702 327.03515625 155.80859375 C339.42720772 170.65620439 350.11941268 186.6781878 360.0625 203.25 C360.51415527 203.99846191 360.96581055 204.74692383 361.43115234 205.51806641 C384.24153438 243.57707544 400.33546071 284.97831118 410.0625 328.25 C410.28534668 329.23419922 410.50819336 330.21839844 410.73779297 331.23242188 C430.61353574 421.01645315 419.05641232 520.78128598 374.0625 609.25 C373.58796387 610.1565332 373.11342773 611.06306641 372.62451172 611.99707031 C365.70198677 625.16864725 358.49115543 637.98182052 350.0625 650.25 C349.57394531 650.96236816 349.08539062 651.67473633 348.58203125 652.40869141 C336.42947342 670.04005342 323.28453545 686.6843995 308.7109375 702.375 C305.38450282 705.98599693 302.15488383 709.67844732 298.9375 713.38671875 C297.0625 715.25 297.0625 715.25 294.0625 716.25 C293.37275874 717.57154425 292.7083787 718.9064737 292.0625 720.25 C290.5390625 721.78515625 290.5390625 721.78515625 288.6875 723.3125 C285.69144525 725.83974762 282.78170427 728.4266979 279.92358398 731.109375 C273.49562495 737.12443244 266.73991639 742.5943666 259.75341797 747.94433594 C258.19788584 749.14546008 256.66234685 750.37235978 255.12890625 751.6015625 C237.97011467 765.22833191 219.25895954 776.74930719 200.0625 787.25 C198.92264648 787.88663574 198.92264648 787.88663574 197.75976562 788.53613281 C172.72929641 802.51093351 145.56480353 813.23572008 118.0625 821.25 C117.3809082 821.45471924 116.69931641 821.65943848 115.99707031 821.87036133 C98.27388665 827.18424101 80.09980042 830.72386335 61.78173828 833.26220703 C57.87418099 833.80489973 54.04284038 834.45562006 50.1875 835.296875 C44.79374607 836.40228475 39.49276424 836.65587113 34 836.8125 C31.97261473 836.88425283 29.94527066 836.95717925 27.91796875 837.03125 C26.92716309 837.06605469 25.93635742 837.10085938 24.91552734 837.13671875 C19.61977856 837.3469898 14.33444332 837.70987934 9.046875 838.06640625 C-0.75073142 838.51786459 -10.46650007 838.11566221 -20.25 837.5 C-20.91181274 837.45876007 -21.57362549 837.41752014 -22.25549316 837.37503052 C-36.18454959 836.4857164 -49.90947034 834.66611755 -63.72070312 832.67138672 C-67.77752246 832.13996063 -71.83672349 831.79201986 -75.91699219 831.49829102 C-77.9375 831.25 -77.9375 831.25 -78.9375 830.25 C-80.45219448 830.01807135 -81.97504562 829.83784762 -83.5 829.6875 C-84.32628906 829.60371094 -85.15257812 829.51992187 -86.00390625 829.43359375 C-86.64199219 829.37300781 -87.28007813 829.31242187 -87.9375 829.25 C-87.9375 828.59 -87.9375 827.93 -87.9375 827.25 C-89.175 827.146875 -90.4125 827.04375 -91.6875 826.9375 C-96.67959362 826.39952478 -101.40181373 825.19242932 -106.23828125 823.87109375 C-109.12556335 823.1005057 -109.12556335 823.1005057 -112.9375 823.25 C-112.9375 822.59 -112.9375 821.93 -112.9375 821.25 C-113.52015625 821.15130615 -114.1028125 821.0526123 -114.703125 820.95092773 C-121.68514924 819.67267389 -128.2461307 817.65938136 -134.9375 815.3125 C-136.06542969 814.91772461 -137.19335938 814.52294922 -138.35546875 814.11621094 C-166.61916639 804.05452279 -193.79805529 791.28543876 -219.17358398 775.25878906 C-221.07372214 774.09544438 -221.07372214 774.09544438 -223.9375 773.25 C-223.9375 772.59 -223.9375 771.93 -223.9375 771.25 C-224.61554688 771.02441406 -225.29359375 770.79882812 -225.9921875 770.56640625 C-229.73555687 768.8933088 -232.78460045 766.62694735 -236.0625 764.1875 C-240.68858918 760.66884642 -240.68858918 760.66884642 -245.9375 758.25 C-247.07517009 757.07886902 -248.21075071 755.90558232 -249.33203125 754.71875 C-251.99792922 752.27987497 -255.07911405 750.47728919 -258.14453125 748.58203125 C-258.73621094 748.14246094 -259.32789063 747.70289063 -259.9375 747.25 C-259.9375 746.59 -259.9375 745.93 -259.9375 745.25 C-260.659375 745.023125 -261.38125 744.79625 -262.125 744.5625 C-265.50523785 742.98505567 -267.31347596 740.89690797 -269.9375 738.25 C-272.82708476 735.86735994 -275.76258948 733.5526047 -278.70703125 731.23828125 C-279.81111328 730.25408203 -279.81111328 730.25408203 -280.9375 729.25 C-280.9375 728.59 -280.9375 727.93 -280.9375 727.25 C-281.52660156 726.97800781 -282.11570312 726.70601562 -282.72265625 726.42578125 C-292.01330553 721.49370817 -299.05429445 711.95023645 -305.9375 704.25 C-307.49967565 702.5205403 -309.06216791 700.79136653 -310.625 699.0625 C-317.63141153 691.26017942 -324.17925495 683.19869706 -330.62304688 674.92871094 C-331.80711996 673.41651062 -333.00433208 671.91462053 -334.203125 670.4140625 C-335.15445313 669.21910156 -335.15445313 669.21910156 -336.125 668 C-336.67542969 667.31421875 -337.22585938 666.6284375 -337.79296875 665.921875 C-338.9375 664.25 -338.9375 664.25 -338.9375 662.25 C-339.9275 661.92 -340.9175 661.59 -341.9375 661.25 C-343.69140625 658.703125 -343.69140625 658.703125 -345.5 655.5 C-346.09941406 654.45328125 -346.69882812 653.4065625 -347.31640625 652.328125 C-348.9375 649.25 -348.9375 649.25 -349.96484375 646.421875 C-350.28582031 645.70515625 -350.60679687 644.9884375 -350.9375 644.25 C-351.9275 643.92 -352.9175 643.59 -353.9375 643.25 C-355.11328125 641.31640625 -355.11328125 641.31640625 -356.25 638.8125 C-357.85794624 635.29758595 -359.66313582 632.00905116 -361.67578125 628.71484375 C-365.32384146 622.69741908 -368.58226247 616.49947907 -371.8125 610.25 C-372.11808838 609.65939789 -372.42367676 609.06879578 -372.73852539 608.46029663 C-379.34086232 595.67548555 -385.30795197 582.75624123 -390.4375 569.3125 C-390.82131836 568.30860229 -390.82131836 568.30860229 -391.21289062 567.28442383 C-392.26056988 564.45236974 -392.9375 562.29707943 -392.9375 559.25 C-393.5975 558.92 -394.2575 558.59 -394.9375 558.25 C-395.65063477 556.44384766 -395.65063477 556.44384766 -396.31640625 554.0390625 C-396.57309082 553.13188477 -396.82977539 552.22470703 -397.09423828 551.29003906 C-397.37251465 550.28682617 -397.65079102 549.28361328 -397.9375 548.25 C-398.5701655 546.06989145 -399.20435097 543.89022358 -399.83984375 541.7109375 C-401.89880857 534.56470565 -403.92373752 527.40908251 -405.9375 520.25 C-406.16646973 519.44691406 -406.39543945 518.64382813 -406.63134766 517.81640625 C-409.51535711 507.620858 -411.12344502 497.33088616 -412.63183594 486.85498047 C-412.78813477 485.77104004 -412.94443359 484.68709961 -413.10546875 483.5703125 C-413.24235107 482.59336426 -413.3792334 481.61641602 -413.52026367 480.60986328 C-413.82376319 478.24025767 -413.82376319 478.24025767 -414.9375 476.25 C-415.14659107 474.7357233 -415.30539226 473.21433125 -415.4375 471.69140625 C-415.5195166 470.7588501 -415.6015332 469.82629395 -415.68603516 468.86547852 C-415.76901855 467.85799561 -415.85200195 466.8505127 -415.9375 465.8125 C-416.02435059 464.76698975 -416.11120117 463.72147949 -416.20068359 462.64428711 C-416.45477322 459.51345476 -416.69870298 456.38203302 -416.9375 453.25 C-416.99969727 452.44820312 -417.06189453 451.64640625 -417.12597656 450.8203125 C-421.32646964 394.27714815 -414.28317329 336.90969302 -395.9375 283.25 C-395.36636475 281.5781665 -395.36636475 281.5781665 -394.78369141 279.87255859 C-389.49778676 264.6763882 -383.2182338 250.14265807 -376.1875 235.6875 C-375.82955353 234.95064972 -375.47160706 234.21379944 -375.10281372 233.45462036 C-371.12488523 225.30437008 -366.97698538 217.35121435 -362.27636719 209.59008789 C-360.81785839 207.21881647 -360.81785839 207.21881647 -359.9375 204.25 C-359.2775 204.25 -358.6175 204.25 -357.9375 204.25 C-357.69515625 203.57195312 -357.4528125 202.89390625 -357.203125 202.1953125 C-347.49912276 179.61254186 -328.50155229 158.44602104 -312.0078125 140.50390625 C-310.67166806 139.04927353 -309.35247464 137.57879871 -308.0546875 136.08984375 C-297.4348084 123.94986431 -286.00248942 112.00193961 -273.265625 102.078125 C-270.93289363 100.24638291 -268.75164876 98.3126575 -266.5625 96.3125 C-203.57244782 39.96463259 -118.85375434 9.94059635 -35.9375 1.25 C-35.01686768 1.15283691 -34.09623535 1.05567383 -33.14770508 0.95556641 C-22.12336727 -0.04935237 -11.06083336 0.00727173 0 0 Z M-60.6875 28.25 C-61.75742187 28.415 -62.82734375 28.58 -63.9296875 28.75 C-69.9923523 29.70334287 -75.96047294 30.86450603 -81.9375 32.25 C-83.79016826 32.63233409 -85.64402914 33.00903391 -87.5 33.375 C-88.34691406 33.54257812 -89.19382812 33.71015625 -90.06640625 33.8828125 C-90.68386719 34.00398438 -91.30132813 34.12515625 -91.9375 34.25 C-91.9375 34.91 -91.9375 35.57 -91.9375 36.25 C-92.49783936 36.06123291 -93.05817871 35.87246582 -93.63549805 35.67797852 C-96.42303321 35.15973171 -98.05718541 35.60112884 -100.76953125 36.40234375 C-101.72110107 36.67997559 -102.6726709 36.95760742 -103.65307617 37.24365234 C-105.18605347 37.71085693 -105.18605347 37.71085693 -106.75 38.1875 C-107.81516846 38.5067041 -108.88033691 38.8259082 -109.9777832 39.15478516 C-131.67865924 45.74360824 -152.70315949 53.60338098 -173.0625 63.625 C-174.04851196 64.10743164 -174.04851196 64.10743164 -175.05444336 64.59960938 C-179.46685725 66.82320528 -179.46685725 66.82320528 -182.9375 70.25 C-182.9375 70.91 -182.9375 71.57 -182.9375 72.25 C-183.65357422 72.52529541 -184.36964844 72.80059082 -185.10742188 73.08422852 C-198.1192512 78.44408747 -216.64178223 86.36870677 -224.9375 98.25 C-225.81342148 103.52316491 -225.34661383 108.43177234 -222.9375 113.25 C-224.175 113.641875 -225.4125 114.03375 -226.6875 114.4375 C-242.62364747 119.84042403 -260.99978652 127.89768581 -270.9375 142.25 C-271.8299161 145.47196983 -272.22618866 148.43843467 -272.48046875 151.765625 C-272.9375 154.25 -272.9375 154.25 -276.0625 156.5 C-277.485625 156.87125 -277.485625 156.87125 -278.9375 157.25 C-280.4225 155.27 -280.4225 155.27 -281.9375 153.25 C-280.8084359 150.80369444 -279.58377063 148.75934313 -278 146.5625 C-275.54154426 142.61407109 -274.2394374 138.68842296 -272.9375 134.25 C-285.15165707 144.47000898 -295.09917361 155.99251041 -303.9375 169.25 C-304.1424372 171.34491301 -304.1424372 171.34491301 -304 173.64453125 C-303.78285667 187.21346456 -306.02985263 194.21921448 -314.9375 204.25 C-326.04538551 217.01645369 -326.04538551 217.01645369 -329.6171875 233.15625 C-329.84749547 237.90198989 -331.15901296 242.23311719 -332.5625 246.75 C-332.79388672 247.49894531 -333.02527344 248.24789062 -333.26367188 249.01953125 C-333.81137627 250.76626417 -334.37286011 252.50866781 -334.9375 254.25 C-338.5675 254.58 -342.1975 254.91 -345.9375 255.25 C-345.91429687 254.40695312 -345.89109375 253.56390625 -345.8671875 252.6953125 C-345.84914063 251.59960938 -345.83109375 250.50390625 -345.8125 249.375 C-345.78929687 248.28445313 -345.76609375 247.19390625 -345.7421875 246.0703125 C-345.63689466 243.1128949 -345.63689466 243.1128949 -347.9375 241.25 C-348.5625 238.625 -348.5625 238.625 -348.9375 236.25 C-366.475091 258.56683725 -374.73103624 292.28439935 -381.9375 319.25 C-382.21432617 320.28060547 -382.49115234 321.31121094 -382.77636719 322.37304688 C-388.83050165 345.40650899 -392.35813778 369.48496797 -393.9375 393.25 C-393.9991333 394.12897949 -394.0607666 395.00795898 -394.12426758 395.91357422 C-394.7624322 406.55494445 -394.34209127 416.11470686 -390.8125 426.25 C-390.52955078 427.06791016 -390.24660156 427.88582031 -389.95507812 428.72851562 C-387.86894158 434.13617976 -385.27620094 437.4152275 -380.9375 441.25 C-384.15910813 442.86080407 -386.51313579 442.07657067 -389.9375 441.25 C-392.1640625 438.6953125 -392.1640625 438.6953125 -393.9375 436.25 C-394.20421137 449.51889061 -392.00700602 461.98693545 -389.125 474.875 C-388.95250732 475.65790405 -388.78001465 476.44080811 -388.60229492 477.24743652 C-386.84452051 485.16156122 -385.05149376 492.86040623 -381.78125 500.31323242 C-379.24350189 506.13845111 -378.88272037 511.34646106 -378.6875 517.625 C-378.35543926 524.09379872 -376.95637304 527.46036568 -373.28125 532.65234375 C-371.55457483 535.99024779 -371.53269229 538.63473632 -371.4375 542.375 C-371.2601792 548.27724953 -370.39089025 550.64750378 -366.5546875 554.9609375 C-362.22999446 561.08236292 -360.66810811 569.81473688 -359.125 577.0703125 C-353.33430889 604.1863372 -335.22532837 629.28722691 -318.9375 651.25 C-318.41833008 651.95318359 -317.89916016 652.65636719 -317.36425781 653.38085938 C-302.59618896 673.29306407 -286.03987896 693.48544188 -267.125 709.625 C-264.13519527 712.19748973 -261.21540107 714.82990115 -258.3125 717.5 C-235.99867215 737.57566275 -210.41643251 754.24577965 -183.9375 768.25 C-183.11475586 768.68666992 -182.29201172 769.12333984 -181.44433594 769.57324219 C-148.08513448 787.13138195 -112.79977144 798.83799088 -76 806.6875 C-75.23155762 806.85145264 -74.46311523 807.01540527 -73.67138672 807.18432617 C-70.32646017 807.8682203 -67.37006402 808.25 -63.9375 808.25 C-63.9375 807.59 -63.9375 806.93 -63.9375 806.25 C-65.5771875 805.5384375 -65.5771875 805.5384375 -67.25 804.8125 C-72.20210505 802.35843728 -76.17030727 798.92206794 -80.37890625 795.37890625 C-85.12306627 791.06657284 -85.12306627 791.06657284 -90.9375 789.25 C-91.14375 788.486875 -91.35 787.72375 -91.5625 786.9375 C-95.15722682 776.69463137 -95.15722682 776.69463137 -103 769.875 C-104.01126953 769.48441406 -104.01126953 769.48441406 -105.04296875 769.0859375 C-107.9495694 767.80343742 -109.78438662 765.52976711 -111.9375 763.25 C-112.5975 763.25 -113.2575 763.25 -113.9375 763.25 C-113.92589844 762.52554688 -113.91429687 761.80109375 -113.90234375 761.0546875 C-113.85488199 755.96949945 -114.02600085 751.26324533 -114.9375 746.25 C-114.855 745.074375 -114.7725 743.89875 -114.6875 742.6875 C-114.605969 739.08073523 -114.605969 739.08073523 -117.3125 736.5 C-118.17875 735.7575 -119.045 735.015 -119.9375 734.25 C-120.5975 733.26 -121.2575 732.27 -121.9375 731.25 C-127.24465361 729.42566595 -134.11872044 729.66694887 -139.5625 730.79296875 C-142.21745065 731.33124381 -144.25344547 731.66222681 -146.9375 731.25 C-148.6640625 729.5234375 -148.6640625 729.5234375 -150.25 727.1875 C-154.42010815 721.06624033 -159.63677005 717.71686703 -166.9375 716.25 C-171.4332907 715.91774549 -175.91168634 716.07637182 -180.41357422 716.20898438 C-193.57726882 716.52320726 -206.16389684 714.73138466 -216.90625 706.640625 C-218.9397976 704.96754428 -218.9397976 704.96754428 -221.9375 705.25 C-221.9375 704.59 -221.9375 703.93 -221.9375 703.25 C-223.5875 702.92 -225.2375 702.59 -226.9375 702.25 C-227.2675 701.26 -227.5975 700.27 -227.9375 699.25 C-229.47351175 697.77169864 -229.47351175 697.77169864 -231.39453125 696.40234375 C-232.09513672 695.87962891 -232.79574219 695.35691406 -233.51757812 694.81835938 C-234.25427734 694.28017578 -234.99097656 693.74199219 -235.75 693.1875 C-236.47509766 692.64544922 -237.20019531 692.10339844 -237.94726562 691.54492188 C-241.85807194 688.61181729 -241.85807194 688.61181729 -246.1003418 686.21313477 C-248.45100737 684.98079248 -248.97086295 683.66659262 -249.9375 681.25 C-250.5975 681.25 -251.2575 681.25 -251.9375 681.25 C-252.185 680.528125 -252.4325 679.80625 -252.6875 679.0625 C-254.07396295 675.94295837 -255.74555996 673.8681506 -257.9375 671.25 C-258.34742188 670.64027344 -258.75734375 670.03054688 -259.1796875 669.40234375 C-262.63367661 664.33844446 -266.41906246 661.19641163 -271.5703125 657.890625 C-276.17059233 654.70231224 -278.86651559 651.48690017 -280.9375 646.25 C-281.32602444 643.41169548 -281.54476412 640.78543917 -281.625 637.9375 C-281.65698486 637.07447266 -281.68896973 636.21144531 -281.72192383 635.32226562 C-282.01311205 625.88494157 -282.06778067 616.43805427 -282.11172485 606.99673462 C-282.12048732 605.18371047 -282.13196697 603.37069716 -282.14633179 601.55770874 C-282.3043513 578.88778524 -282.3043513 578.88778524 -279.9375 571.25 C-278.9475 570.59 -277.9575 569.93 -276.9375 569.25 C-276.9375 568.59 -276.9375 567.93 -276.9375 567.25 C-276.40125 567.04375 -275.865 566.8375 -275.3125 566.625 C-272.65505054 565.26733283 -272.65505054 565.26733283 -270.375 562.1875 C-268.40209822 560.11924437 -267.46329935 559.31461604 -264.59326172 558.96191406 C-263.27479248 558.95756348 -263.27479248 558.95756348 -261.9296875 558.953125 C-255.06658834 558.48068788 -250.31948292 555.75283993 -244.625 552.0625 C-243.65675293 551.44552246 -242.68850586 550.82854492 -241.69091797 550.19287109 C-233.73957422 544.79229329 -229.91925961 539.69925957 -227.9375 530.25 C-222.05856118 529.78235714 -219.27244404 530.912401 -214.4375 534.1875 C-207.92281612 538.31960986 -202.65762456 539.15885773 -195.01953125 539.21484375 C-191.9375 539.25 -191.9375 539.25 -188.9375 540.25 C-187.04721464 540.31206028 -185.15469646 540.31326127 -183.26367188 540.28076172 C-182.09815796 540.26520233 -180.93264404 540.24964294 -179.73181152 540.23361206 C-177.83815857 540.2069194 -177.83815857 540.2069194 -175.90625 540.1796875 C-172.53479358 540.16593849 -169.16342846 540.15802686 -165.79195404 540.15334892 C-162.27278156 540.14516239 -158.75583248 540.11768071 -155.23730469 540.04785156 C-129.25599271 539.55767672 -129.25599271 539.55767672 -123.02111816 545.26370239 C-121.10457424 547.4494898 -119.51315629 549.81155618 -117.9375 552.25 C-117.2775 552.25 -116.6175 552.25 -115.9375 552.25 C-115.2775 559.18 -114.6175 566.11 -113.9375 573.25 C-106.01396979 576.49144418 -98.01202174 579.41111916 -89.9375 582.25 C-89.6075 585.22 -89.2775 588.19 -88.9375 591.25 C-87.596875 591.394375 -86.25625 591.53875 -84.875 591.6875 C-78.88231403 592.81272695 -74.38000367 595.77404283 -69.46850586 599.23803711 C-66.12834358 601.46077957 -63.75605256 602.59501778 -59.68359375 602.3125 C-55.92588265 601.58782889 -55.92588265 601.58782889 -53.94921875 599.17578125 C-53.51222656 598.31339844 -53.07523438 597.45101562 -52.625 596.5625 C-52.15191406 595.66144531 -51.67882812 594.76039063 -51.19140625 593.83203125 C-50.77761719 592.97996094 -50.36382813 592.12789062 -49.9375 591.25 C-49.31875 590.095 -48.7 588.94 -48.0625 587.75 C-46.80071177 585.40293684 -46.80071177 585.40293684 -46.9375 583.25 C-41.16288833 582.31357649 -36.69813192 582.10779793 -31.66796875 585.37109375 C-30.57815641 586.25240449 -29.50143599 587.15011864 -28.4375 588.0625 C-22.56882568 593.06028816 -17.71762252 595.26872329 -9.9375 596.25 C-8.98746094 596.37632812 -8.03742188 596.50265625 -7.05859375 596.6328125 C1.32579721 597.45131375 9.77116144 597.34696752 18.1875 597.375 C19.36699219 597.37975342 20.54648437 597.38450684 21.76171875 597.3894043 C37.31727214 598.21284653 37.31727214 598.21284653 50.51953125 591.6171875 C53.00513626 587.80382893 53.64079201 583.79095262 54.296875 579.3359375 C55.1768199 575.78922081 56.61920955 573.92172818 59.0625 571.25 C57.74736903 567.30460709 56.35662375 564.83188077 53.0625 562.25 C48.6258064 560.29785482 45.8150986 560.17101795 41.25 561.375 C37.01425101 562.42110164 34.92204422 562.06935041 31 560.1875 C27.51117021 558.52429713 27.51117021 558.52429713 23.75 558.609375 C22.25602452 559.15924097 20.77573597 559.74789887 19.3125 560.375 C15.63710976 561.80431843 11.9750699 561.93947858 8.0625 562.25 C7.4025 560.6 6.7425 558.95 6.0625 557.25 C5.4025 557.25 4.7425 557.25 4.0625 557.25 C3.95164062 556.66992188 3.84078125 556.08984375 3.7265625 555.4921875 C1.77473872 548.90191191 -4.36872352 543.03906441 -9.9375 539.25 C-10.5975 539.25 -11.2575 539.25 -11.9375 539.25 C-12.06125 538.30125 -12.185 537.3525 -12.3125 536.375 C-12.65437177 533.16332809 -12.65437177 533.16332809 -14.9375 531.25 C-17.76381118 530.4139933 -17.76381118 530.4139933 -20.9375 531.25 C-26.83610112 536.24433444 -28.29517185 542.84107705 -28.9375 550.25 C-28.96048632 551.91650815 -28.96752516 553.58360381 -28.9375 555.25 C-30.73373856 554.85350587 -32.52448435 554.43206548 -34.3125 554 C-35.31023437 553.76796875 -36.30796875 553.5359375 -37.3359375 553.296875 C-39.9375 552.25 -39.9375 552.25 -41.21875 550.4375 C-41.97523022 548.13516891 -42.5737465 545.87394559 -43.0625 543.5 C-43.23007812 542.70078125 -43.39765625 541.9015625 -43.5703125 541.078125 C-43.69148438 540.47484375 -43.81265625 539.8715625 -43.9375 539.25 C-44.9275 539.25 -45.9175 539.25 -46.9375 539.25 C-46.9375 538.59 -46.9375 537.93 -46.9375 537.25 C-47.9275 536.59 -48.9175 535.93 -49.9375 535.25 C-50.66796875 532.8671875 -50.66796875 532.8671875 -51.125 530.125 C-51.36283203 528.75988281 -51.36283203 528.75988281 -51.60546875 527.3671875 C-51.71503906 526.66851563 -51.82460938 525.96984375 -51.9375 525.25 C-52.5975 525.25 -53.2575 525.25 -53.9375 525.25 C-54.16824219 524.68410156 -54.39898438 524.11820313 -54.63671875 523.53515625 C-56.27315171 520.66034158 -58.27670394 518.87898122 -60.75 516.6875 C-61.60207031 515.92308594 -62.45414063 515.15867187 -63.33203125 514.37109375 C-65.77209835 512.38465232 -68.23004815 510.8380684 -70.9375 509.25 C-72.64858689 507.62897032 -74.31003306 505.95496537 -75.9375 504.25 C-77.16085494 502.97357109 -78.3902589 501.7029179 -79.625 500.4375 C-80.20636719 499.83292969 -80.78773438 499.22835938 -81.38671875 498.60546875 C-82.84519892 497.03063276 -82.84519892 497.03063276 -84.9375 497.25 C-84.9375 495.27 -84.9375 493.29 -84.9375 491.25 C-87.5775 490.92 -90.2175 490.59 -92.9375 490.25 C-92.23593593 497.40595346 -90.62964979 504.26855181 -88.9375 511.25 C-88.34324219 511.37375 -87.74898437 511.4975 -87.13671875 511.625 C-77.98092146 513.90326993 -70.19584794 519.18458004 -63.9375 526.25 C-63.1875 529.5 -63.1875 529.5 -62.9375 532.25 C-64.5875 532.25 -66.2375 532.25 -67.9375 532.25 C-68.5975 535.55 -69.2575 538.85 -69.9375 542.25 C-72.9075 543.24 -75.8775 544.23 -78.9375 545.25 C-79.2675 539.64 -79.5975 534.03 -79.9375 528.25 C-81.5875 527.528125 -83.2375 526.80625 -84.9375 526.0625 C-93.59017061 522.09114605 -100.26936685 518.10323956 -105.9375 510.25 C-106.2675 509.26 -106.5975 508.27 -106.9375 507.25 C-107.5975 507.25 -108.2575 507.25 -108.9375 507.25 C-109.02 506.46625 -109.1025 505.6825 -109.1875 504.875 C-109.85196796 501.66340486 -110.74939843 499.04172024 -111.984375 496.0234375 C-112.34885742 495.12802246 -112.71333984 494.23260742 -113.08886719 493.31005859 C-113.36891602 492.63023926 -113.64896484 491.95041992 -113.9375 491.25 C-117.86611947 491.22493765 -121.79470679 491.20697201 -125.72338867 491.19506836 C-127.70297892 491.1876756 -129.68254701 491.17495726 -131.66210938 491.16210938 C-150.70450686 491.11390077 -162.42032285 493.32252058 -176.38085938 506.62890625 C-179.37310164 509.74504311 -181.69339645 513.27405292 -183.8984375 516.97265625 C-187.9607094 521.50963809 -193.27883799 522.34313559 -199.09375 522.76171875 C-200.87450784 522.83373469 -202.65586281 522.89218219 -204.4375 522.9375 C-205.3553125 522.97166016 -206.273125 523.00582031 -207.21875 523.04101562 C-209.4582109 523.12266264 -211.6973215 523.19207538 -213.9375 523.25 C-213.9375 522.59 -213.9375 521.93 -213.9375 521.25 C-215.42015101 520.02292638 -215.42015101 520.02292638 -217.3671875 518.8671875 C-218.08003906 518.42246094 -218.79289063 517.97773437 -219.52734375 517.51953125 C-220.28144531 517.05933594 -221.03554688 516.59914063 -221.8125 516.125 C-222.55886719 515.65707031 -223.30523438 515.18914062 -224.07421875 514.70703125 C-227.74741602 512.16737955 -227.74741602 512.16737955 -231.9375 511.25 C-232.13422365 509.52185839 -232.31946799 507.79240803 -232.5 506.0625 C-232.60441406 505.09957031 -232.70882812 504.13664062 -232.81640625 503.14453125 C-232.99504288 498.87453956 -232.34697998 496.0493132 -230.390625 492.23046875 C-227.63565536 486.07181083 -228.61833513 478.74590419 -228.76171875 472.14648438 C-228.69412795 464.03076098 -228.69412795 464.03076098 -226.33007812 461.59130859 C-224.390625 460.48046875 -224.390625 460.48046875 -220.9375 459.25 C-219.49929506 460.3949484 -218.06199468 461.54103301 -216.625 462.6875 C-215.70332031 463.40808594 -214.78164063 464.12867188 -213.83203125 464.87109375 C-210.9375 467.25 -210.9375 467.25 -208.38671875 469.78515625 C-202.10872101 475.79641054 -197.7207752 477.08158206 -189.33154297 476.97265625 C-186.58367501 476.8160595 -184.49000977 476.67431781 -182.26757812 474.9675293 C-179.84278213 471.8363913 -180.14972613 468.14772932 -179.9375 464.3125 C-179.82341797 463.09530273 -179.82341797 463.09530273 -179.70703125 461.85351562 C-179.56705564 459.54770114 -179.52627024 457.52412613 -179.9375 455.25 C-182.12840833 452.83788065 -182.12840833 452.83788065 -184.9375 451.25 C-186.16001434 449.94869576 -187.35015586 448.61594014 -188.5 447.25 C-190.37430652 445.03676659 -192.1462563 443.06321805 -194.3125 441.125 C-196.47591533 438.62875154 -196.64354403 436.48351567 -196.9375 433.25 C-190.65892786 432.71777667 -186.66108187 434.40753646 -181.125 437.25 C-179.62004393 438.00311411 -178.11360149 438.75326761 -176.60546875 439.5 C-175.61969849 440.00273438 -175.61969849 440.00273438 -174.61401367 440.515625 C-172.93722476 441.38374388 -172.93722476 441.38374388 -170.9375 441.25 C-169.12682626 439.53668011 -169.12682626 439.53668011 -167.3125 437.375 C-166.68085937 436.65570312 -166.04921875 435.93640625 -165.3984375 435.1953125 C-163.73732877 433.38893067 -163.73732877 433.38893067 -163.9375 431.25 C-162.92429687 431.20101563 -161.91109375 431.15203125 -160.8671875 431.1015625 C-159.51560089 431.02647436 -158.16403962 430.95092919 -156.8125 430.875 C-155.81476563 430.82859375 -155.81476563 430.82859375 -154.796875 430.78125 C-149.26701892 430.45596435 -144.79306621 429.96113974 -140.62890625 426.12109375 C-139.57509766 424.91646484 -139.57509766 424.91646484 -138.5 423.6875 C-134.67034725 419.65222831 -132.58694375 418.56977983 -126.9375 418.25 C-126.03 417.59 -125.1225 416.93 -124.1875 416.25 C-119.60593927 413.43057801 -115.2260903 413.43820606 -109.9375 413.25 C-109.855 411.950625 -109.7725 410.65125 -109.6875 409.3125 C-108.78103002 401.31793834 -105.80489053 395.62844132 -99.9375 390.25 C-99.9375 389.59 -99.9375 388.93 -99.9375 388.25 C-94.00633365 393.9834608 -94.00633365 393.9834608 -93.8203125 397.40625 C-93.90023438 398.1796875 -93.98015625 398.953125 -94.0625 399.75 C-94.12695312 400.5234375 -94.19140625 401.296875 -94.2578125 402.09375 C-94.9375 404.25 -94.9375 404.25 -96.9453125 405.67578125 C-99.20616223 407.12314299 -99.20616223 407.12314299 -99.546875 409.94921875 C-99.59328125 410.93535156 -99.6396875 411.92148437 -99.6875 412.9375 C-99.74421875 413.93136719 -99.8009375 414.92523437 -99.859375 415.94921875 C-99.88515625 416.70847656 -99.9109375 417.46773437 -99.9375 418.25 C-97.9696415 419.25590286 -95.99743319 420.24841834 -94.01171875 421.21875 C-92.50194691 421.96937103 -91.0216721 422.78021616 -89.5625 423.625 C-86.0035876 424.47236009 -83.31684504 423.7020292 -79.78515625 422.890625 C-73.15772384 421.39967998 -66.39706602 420.49476499 -59.64453125 419.78515625 C-47.4351089 419.23381725 -47.4351089 419.23381725 -36.9375 414.25 C-36.86505947 412.23035801 -36.85372812 410.20832876 -36.875 408.1875 C-36.88853516 406.53041016 -36.88853516 406.53041016 -36.90234375 404.83984375 C-36.91394531 403.98519531 -36.92554688 403.13054687 -36.9375 402.25 C-35.761875 401.816875 -34.58625 401.38375 -33.375 400.9375 C-32.27865234 400.50630859 -32.27865234 400.50630859 -31.16015625 400.06640625 C-28.9375 399.25 -28.9375 399.25 -25.3125 398.375 C-19.84373026 394.93170053 -18.09344395 389.18082017 -15.9375 383.25 C-15.9375 382.59 -15.9375 381.93 -15.9375 381.25 C-8.3475 380.92 -0.7575 380.59 7.0625 380.25 C6.7325 376.62 6.4025 372.99 6.0625 369.25 C-4.75835332 364.92165867 -16.22897098 370.08876758 -26.9375 373.25 C-28.12423369 351.39888552 -28.12423369 351.39888552 -22.80078125 343.2421875 C-20.8513544 341.15789464 -19.16746524 340.13019906 -16.625 338.875 C-14.50935739 337.93524846 -14.50935739 337.93524846 -12.9375 336.25 C-11.93985916 331.90199311 -11.83330293 327.69791261 -11.9375 323.25 C-17.31904699 322.60234484 -22.85326861 322.02838206 -27.9375 324.25 C-30.84078707 327.26170858 -32.47149441 330.94290114 -34.25683594 334.68457031 C-37.02621428 340.30071014 -39.4141953 342.79428007 -45.0625 345.4375 C-49.8524734 347.88578307 -49.8524734 347.88578307 -52.0078125 352.62109375 C-52.23765996 357.42290691 -52.26598427 361.42374619 -49.36328125 365.4140625 C-47.6283097 366.89078881 -45.86578153 368.04771415 -43.9375 369.25 C-42.11660521 372.89178957 -42.88628887 377.25553148 -42.9375 381.25 C-47.8875 381.58 -52.8375 381.91 -57.9375 382.25 C-59.77527996 386.37307127 -61.60790571 390.49829839 -63.4375 394.625 C-63.96214844 395.800625 -64.48679687 396.97625 -65.02734375 398.1875 C-65.77177734 399.86972656 -65.77177734 399.86972656 -66.53125 401.5859375 C-66.99208984 402.62282715 -67.45292969 403.6597168 -67.92773438 404.72802734 C-69.06140018 407.10668247 -69.06140018 407.10668247 -68.9375 409.25 C-74.790295 408.73517081 -80.2672637 407.79642808 -85.9375 406.25 C-86.0372415 402.04660802 -85.99101664 398.08029993 -85.32421875 393.92578125 C-85.21142578 393.20712891 -85.09863281 392.48847656 -84.98242188 391.74804688 C-84.74174896 390.27639121 -84.48356295 388.80750505 -84.20898438 387.34179688 C-83.60236266 383.26456367 -83.69362014 381.60049401 -86.08203125 378.16796875 C-88.68861583 376.04266766 -88.68861583 376.04266766 -91.28125 376.20703125 C-95.46640522 377.85032014 -99.44446392 379.87783626 -103.41015625 381.98632812 C-106.44371333 383.49697827 -108.28508009 384.39529466 -111.65625 383.64453125 C-112.4090625 383.18433594 -113.161875 382.72414063 -113.9375 382.25 C-114.64100586 381.83564697 -115.34451172 381.42129395 -116.06933594 380.99438477 C-117.9375 379.25 -117.9375 379.25 -118.29980469 376.82080078 C-118.23696289 375.87188965 -118.17412109 374.92297852 -118.109375 373.9453125 C-118.05128662 372.89206787 -117.99319824 371.83882324 -117.93334961 370.75366211 C-117.81165405 369.08122437 -117.81165405 369.08122437 -117.6875 367.375 C-117.55674988 365.10817852 -117.42782661 362.84125088 -117.30078125 360.57421875 C-117.23455566 359.48415527 -117.16833008 358.3940918 -117.10009766 357.27099609 C-116.81257286 351.92890624 -116.84180555 346.59825661 -116.9375 341.25 C-115.76703125 341.023125 -114.5965625 340.79625 -113.390625 340.5625 C-97.9974952 337.09633786 -78.10454226 332.08403485 -69.0625 318.25 C-67.65787612 315.9762179 -66.33067167 313.68851827 -65.06542969 311.33447266 C-59.08424935 300.28094069 -50.52791696 293.06728469 -40.34179688 286.09667969 C-37.81453995 284.26373984 -37.81453995 284.26373984 -35.54882812 281.66113281 C-27.06631944 273.28874792 -18.65256307 273.10424909 -7.04058838 273.04141235 C-3.68754443 273.07238706 -0.33819862 273.13531107 3.01385498 273.21362305 C5.75881639 273.26236421 8.50220196 273.25105213 11.24746704 273.23908997 C14.5403467 273.23147064 17.83239687 273.27307387 21.125 273.3125 C22.34896484 273.31290283 23.57292969 273.31330566 24.83398438 273.3137207 C33.06031465 273.54358774 33.06031465 273.54358774 35.79638672 275.47216797 C37.05859375 276.99609375 37.05859375 276.99609375 39.0625 280.25 C40.70736143 281.93819028 42.37450715 283.60493596 44.0625 285.25 C45.42616699 286.60581177 45.42616699 286.60581177 46.81738281 287.98901367 C47.29427551 288.46267868 47.77116821 288.93634369 48.26251221 289.42436218 C50.38974197 291.53813858 52.51424293 293.65464936 54.63867188 295.77124023 C55.76084011 296.88833449 56.88389746 298.00453627 58.0078125 299.11987305 C59.63775916 300.73773725 61.26449561 302.35876898 62.890625 303.98046875 C63.64681122 304.72891304 63.64681122 304.72891304 64.41827393 305.49247742 C67.94862916 309.02225833 67.94862916 309.02225833 69.0625 311.25 C68.155 311.20875 67.2475 311.1675 66.3125 311.125 C61.83160208 311.11594768 57.54752944 311.95544814 53.1484375 312.7421875 C49.41693804 313.35623171 45.69421846 313.70940318 41.92578125 314.00390625 C40.05032379 314.05936569 40.05032379 314.05936569 39.0625 315.25 C37.21358054 315.48363881 35.35761969 315.66303635 33.5 315.8125 C31.98212891 315.93818359 31.98212891 315.93818359 30.43359375 316.06640625 C29.65113281 316.12699219 28.86867188 316.18757813 28.0625 316.25 C27.03550584 324.11670676 27.03550584 324.11670676 29.421875 331.37890625 C34.80222143 335.81435713 41.27868791 336.7253852 48.0625 337.25 C49.609375 337.37955078 49.609375 337.37955078 51.1875 337.51171875 C54.75033105 337.18738495 55.60124501 336.32957378 57.9375 333.6875 C60.46514338 330.95478367 62.96212544 328.39502427 65.8125 326 C69.96821231 322.43328628 73.77701553 318.5641067 77.62207031 314.67089844 C81.06627164 311.20038877 84.601535 307.90133895 88.34375 304.75 C90.14379378 303.26474823 90.14379378 303.26474823 91.67578125 301.265625 C95.261536 298.23739349 99.3034084 297.33310279 103.75 296 C107.52813515 294.77177811 111.29547923 293.5118494 115.0625 292.25 C115.90893066 291.97236816 116.75536133 291.69473633 117.62744141 291.40869141 C126.54647558 288.59872081 126.54647558 288.59872081 133.18554688 282.46044922 C134.64523142 279.07851571 135.47654004 275.65375908 136.21484375 272.0546875 C137.29147058 267.2222703 139.25693256 264.25795349 142.0625 260.25 C142.0625 259.59 142.0625 258.93 142.0625 258.25 C142.72894531 258.3221875 143.39539063 258.394375 144.08203125 258.46875 C150.76760535 259.14198264 157.3455148 259.36693011 164.0625 259.25 C164.0625 256.28 164.0625 253.31 164.0625 250.25 C163.258125 249.981875 162.45375 249.71375 161.625 249.4375 C160.779375 249.045625 159.93375 248.65375 159.0625 248.25 C158.7325 247.26 158.4025 246.27 158.0625 245.25 C157.2375 244.92 156.4125 244.59 155.5625 244.25 C154.7375 243.92 153.9125 243.59 153.0625 243.25 C152.7325 242.26 152.4025 241.27 152.0625 240.25 C150.04682421 238.35389695 150.04682421 238.35389695 147.625 236.5625 C146.42037109 235.62857422 146.42037109 235.62857422 145.19140625 234.67578125 C143.21258209 233.06451399 143.21258209 233.06451399 141.0625 233.25 C140.10246427 230.3698928 139.98404198 228.66400117 140.0625 225.6875 C140.19205645 222.33718018 140.19205645 222.33718018 139.0625 219.25 C140.2175 219.12625 141.3725 219.0025 142.5625 218.875 C146.84600375 218.34721115 150.89602672 217.36601963 155.0625 216.25 C155.28679687 217.68279297 155.28679687 217.68279297 155.515625 219.14453125 C157.62431372 229.51225079 161.14194919 234.59427064 169.45019531 241.00341797 C172.02475153 242.99398187 174.5001945 245.10432875 177 247.1875 C178.68382058 248.54623908 180.37114235 249.90065464 182.0625 251.25 C182.99191406 251.99378906 183.92132812 252.73757813 184.87890625 253.50390625 C185.59949219 254.08011719 186.32007813 254.65632812 187.0625 255.25 C187.40004883 253.91772763 187.73242631 252.58414401 188.0625 251.25 C188.25714844 250.58742188 188.45179688 249.92484375 188.65234375 249.2421875 C189.11193214 246.44334585 189.08143455 244.93051662 188.0625 242.25 C185.87392892 240.48151706 183.8014608 238.9903493 181.4375 237.5 C174.02541497 232.81637567 170.19625322 228.0502903 168.0625 219.25 C168.11235073 214.08214053 171.48649059 210.74211003 174.625 206.9375 C175.14513672 206.29232422 175.66527344 205.64714844 176.20117188 204.98242188 C177.48015892 203.39835535 178.77025044 201.82326594 180.0625 200.25 C173.81678416 194.87498779 173.81678416 194.87498779 166.0625 193.25 C166.0625 192.59 166.0625 191.93 166.0625 191.25 C165.4025 191.25 164.7425 191.25 164.0625 191.25 C166.18496797 187.38284962 168.58996145 184.50594323 171.75 181.4375 C172.96236328 180.25220703 172.96236328 180.25220703 174.19921875 179.04296875 C175.12154297 178.15544922 175.12154297 178.15544922 176.0625 177.25 C173.17621599 175.67445965 170.52907616 174.78723627 167.3125 174.125 C166.11367187 173.87363281 166.11367187 173.87363281 164.890625 173.6171875 C164.28734375 173.49601563 163.6840625 173.37484375 163.0625 173.25 C163.1346875 172.22003906 163.206875 171.19007813 163.28125 170.12890625 C163.53761672 166.3186107 163.74459891 162.50706124 163.93359375 158.69287109 C164.0181236 157.09096639 164.11408351 155.48961508 164.22265625 153.88916016 C165.07235696 144.95985191 165.07235696 144.95985191 162.5703125 136.62890625 C160.81351275 134.81743431 159.27911626 133.44857757 157.0625 132.25 C156.4025 132.25 155.7425 132.25 155.0625 132.25 C154.7325 131.26 154.4025 130.27 154.0625 129.25 C153.4025 129.25 152.7425 129.25 152.0625 129.25 C152.0625 128.59 152.0625 127.93 152.0625 127.25 C149.5875 126.26 149.5875 126.26 147.0625 125.25 C147.0625 124.26 147.0625 123.27 147.0625 122.25 C147.82820312 122.01539063 148.59390625 121.78078125 149.3828125 121.5390625 C154.33948479 119.80264864 159.12063225 117.71361474 163.9375 115.625 C164.91203125 115.20476562 165.8865625 114.78453125 166.890625 114.3515625 C169.28219813 113.3199035 171.67247901 112.28524973 174.0625 111.25 C178.0225 114.55 181.9825 117.85 186.0625 121.25 C196.15414509 117.10983791 206.10401943 112.70113904 216.0625 108.25 C216.7225 101.65 217.3825 95.05 218.0625 88.25 C215.835 86.80625 213.6075 85.3625 211.3125 83.875 C210.27077637 83.19751709 210.27077637 83.19751709 209.20800781 82.50634766 C208.37027832 81.9656665 208.37027832 81.9656665 207.515625 81.4140625 C206.95004883 81.04748535 206.38447266 80.6809082 205.80175781 80.30322266 C203.9333774 79.17180869 202.02064485 78.21732036 200.0625 77.25 C198.40132977 76.34908759 196.7441298 75.4408356 195.08984375 74.52734375 C157.16847067 53.69291004 116.97897892 37.42294957 74.04345703 30.58105469 C71.369956 30.13426304 68.71491506 29.60651444 66.05615234 29.08007812 C59.72857386 27.83408912 53.40398847 26.82944054 47 26.0625 C45.96456055 25.93669556 45.96456055 25.93669556 44.90820312 25.80834961 C41.81732776 25.45961039 38.80302041 25.25090201 35.69140625 25.26171875 C32.87052965 25.25260935 30.29414909 25.08175902 27.50683594 24.75976562 C22.10243279 24.20258561 16.75397886 24.08851134 11.32421875 24.08203125 C10.32276321 24.07870285 9.32130768 24.07537445 8.289505 24.07194519 C6.1776271 24.06691108 4.06574133 24.06453577 1.95385742 24.06469727 C-1.2034294 24.06253194 -4.36035388 24.04439667 -7.51757812 24.02539062 C-25.4517845 23.97462532 -42.9786593 25.3951743 -60.6875 28.25 Z M375.0625 522.25 C372.99902253 524.62415225 370.93689999 526.99947768 368.875 529.375 C368.29685547 530.04015625 367.71871094 530.7053125 367.12304688 531.390625 C365.97447964 532.71439741 364.83015229 534.04186096 363.69018555 535.37304688 C362.66576906 536.55434491 361.62259355 537.71987904 360.55395508 538.86132812 C357.35890083 542.36584046 356.45444128 544.80690674 356.125 549.5 C355.57517705 554.27052264 354.74632241 557.25023683 352 561.1875 C349.12556773 565.38022981 348.84338664 568.07055914 348.9375 573.125 C348.78060761 578.32486206 348.02872438 580.99161941 344.27050781 584.69091797 C343.20477436 585.65638964 342.13635654 586.61890551 341.06542969 587.57861328 C330.87819501 596.73753086 321.25477231 610.4310812 319.0625 624.25 C318.99253733 628.21621716 319.39552351 632.12017178 319.79931641 636.06152344 C320.19016169 640.54387565 320.18259998 643.55817138 317.6875 647.375 C315.67292875 649.4750955 314.5218544 650.16200679 311.65625 650.7109375 C309.39192492 650.74676543 307.29602755 650.60736441 305.0625 650.25 C304.83691406 649.48300781 304.61132812 648.71601562 304.37890625 647.92578125 C302.58907648 642.92806667 300.30048607 638.21743498 298 633.4375 C297.54044922 632.47134766 297.08089844 631.50519531 296.60742188 630.50976562 C294.76710221 626.0944056 294.76710221 626.0944056 292.0625 622.25 C291.97580568 620.7612814 291.95546506 619.268555 291.96484375 617.77734375 C291.96806641 616.87822266 291.97128906 615.97910156 291.97460938 615.05273438 C291.98298828 614.10720703 291.99136719 613.16167969 292 612.1875 C292.00451172 611.23810547 292.00902344 610.28871094 292.01367188 609.31054688 C292.0254989 606.95696935 292.04197975 604.60351523 292.0625 602.25 C290.98484375 601.94835937 289.9071875 601.64671875 288.796875 601.3359375 C278.90483144 598.4593809 278.90483144 598.4593809 276.6640625 595.2421875 C274.1450288 592.10875534 271.33901193 591.94865264 267.515625 591.2890625 C264.80582017 591.029949 264.80582017 591.029949 261.9375 593.125 C261.009375 594.176875 261.009375 594.176875 260.0625 595.25 C259.753125 594.46625 259.44375 593.6825 259.125 592.875 C258.13374962 590.32669872 258.13374962 590.32669872 257.0625 588.25 C249.27820123 587.60480684 249.27820123 587.60480684 242.1875 590.3125 C239.0625 592.25 239.0625 592.25 236.375 592.1875 C233.90860919 591.18761183 232.13891526 589.89681211 230.0625 588.25 C229.4025 588.25 228.7425 588.25 228.0625 588.25 C226.35765534 589.93522729 226.35765534 589.93522729 224.625 592.0625 C223.44352081 593.46343321 222.2562496 594.8595077 221.0625 596.25 C220.61648438 596.82363281 220.17046875 597.39726563 219.7109375 597.98828125 C217.23811642 599.88098554 215.19334433 599.64775657 212.125 599.625 C211.08472656 599.63273438 210.04445313 599.64046875 208.97265625 599.6484375 C205.78287501 599.21171577 204.41247693 598.39046092 202.0625 596.25 C201.50941162 596.73388184 200.95632324 597.21776367 200.38647461 597.71630859 C196.22123243 600.46513215 191.48530883 599.86723652 186.625 599.875 C185.54710205 599.87733643 184.4692041 599.87967285 183.35864258 599.88208008 C173.80559538 599.66550501 166.27523012 597.55859642 159.36328125 590.51953125 C158.12688631 589.01718063 158.12688631 589.01718063 156.0625 589.25 C155.4025 587.93 154.7425 586.61 154.0625 585.25 C153.381875 585.724375 152.70125 586.19875 152 586.6875 C148.64479697 588.47218246 145.81070043 588.81751534 142.0625 589.25 C140.82982652 590.25836062 140.82982652 590.25836062 140.96484375 592.31640625 C140.97644531 593.14011719 140.98804688 593.96382812 141 594.8125 C141.00902344 595.63878906 141.01804687 596.46507812 141.02734375 597.31640625 C141.03894531 597.95449219 141.05054688 598.59257813 141.0625 599.25 C143.0425 599.58 145.0225 599.91 147.0625 600.25 C147.371875 601.9825 147.371875 601.9825 147.6875 603.75 C148.11950956 605.58971419 148.58329572 607.42201099 149.0625 609.25 C149.22959473 609.89291992 149.39668945 610.53583984 149.56884766 611.19824219 C151.79945916 620.29506915 151.79945916 620.29506915 157.76171875 626.9453125 C161.96998969 628.10272747 165.7066041 628.25 170.0625 628.25 C170.55621094 627.18265625 171.04992187 626.1153125 171.55859375 625.015625 C174.12932949 620.51938442 177.49524893 619.00025249 182.125 617 C183.5558482 616.35438899 184.98433777 615.70351935 186.41015625 615.046875 C187.03929932 614.77198242 187.66844238 614.49708984 188.31665039 614.21386719 C190.258811 613.14161854 191.56975323 611.87886785 193.0625 610.25 C196.83388991 611.60124665 199.77674789 613.31970816 203 615.6875 C208.98588815 620.33280553 208.98588815 620.33280553 216.0625 622.25 C213.74186695 631.69481425 209.99007295 637.50934301 203.0625 644.25 C202.24910156 645.07113281 201.43570313 645.89226562 200.59765625 646.73828125 C194.56422266 652.71593579 188.23666329 658.3579827 181.625 663.6875 C177.57608618 666.95555187 173.69445142 670.3459303 169.875 673.875 C169.37025146 674.34019043 168.86550293 674.80538086 168.34545898 675.28466797 C166.13470267 677.3255333 163.93109405 679.37345534 161.73828125 681.43359375 C161.06152344 682.05363281 160.38476562 682.67367187 159.6875 683.3125 C159.12289062 683.83972656 158.55828125 684.36695313 157.9765625 684.91015625 C154.17286301 687.57274589 150.17598545 688.30728903 145.63671875 688.71484375 C135.96900785 689.28794587 135.96900785 689.28794587 127.8203125 693.890625 C125.65380967 696.59010136 123.76468983 699.2392198 122.0625 702.25 C121.35738281 702.08628906 120.65226563 701.92257812 119.92578125 701.75390625 C116.96591312 701.23300176 114.25188727 701.15133268 111.25 701.1875 C110.27417969 701.19652344 109.29835938 701.20554687 108.29296875 701.21484375 C107.55691406 701.22644531 106.82085938 701.23804688 106.0625 701.25 C106.124375 700.115625 106.18625 698.98125 106.25 697.8125 C106.19730441 690.29020384 103.41353863 684.68558104 99.5 678.375 C96.08626808 672.77187039 94.68900314 667.74517539 94.0625 661.25 C93.54300781 661.51554687 93.02351563 661.78109375 92.48828125 662.0546875 C91.79089844 662.40789062 91.09351563 662.76109375 90.375 663.125 C89.34826172 663.64707031 89.34826172 663.64707031 88.30078125 664.1796875 C85.92566851 665.31543077 83.51567381 666.29622664 81.0625 667.25 C81.00191406 666.51394531 80.94132812 665.77789063 80.87890625 665.01953125 C80.79511719 664.04371094 80.71132813 663.06789063 80.625 662.0625 C80.54378906 661.09957031 80.46257812 660.13664062 80.37890625 659.14453125 C79.77847437 653.65169146 78.35350535 649.25098972 75.875 644.3125 C75.56473877 643.69294434 75.25447754 643.07338867 74.93481445 642.43505859 C72.52698511 637.79853014 70.14691772 634.47953959 66.0625 631.25 C65.4025 631.25 64.7425 631.25 64.0625 631.25 C63.66998047 630.39148437 63.66998047 630.39148437 63.26953125 629.515625 C60.98148002 625.22090102 58.18375075 621.8765938 54.0625 619.25 C49.64400053 618.58343779 45.49358404 618.76366151 41.0625 619.25 C40.36810335 624.03362139 40.07048161 626.77519933 42.8203125 630.86328125 C46.15002564 634.58240152 49.64746424 637.91314478 53.5 641.078125 C57.25029854 644.27406243 60.15177425 647.80510154 63 651.8125 C63.51723633 652.53703369 64.03447266 653.26156738 64.56738281 654.00805664 C68.47770643 659.76951821 71.0072161 665.63851694 73.3125 672.1875 C78.2187923 686.07440266 86.24835607 693.61945289 97.35693359 702.8203125 C102.43919312 707.080506 107.41702795 711.51604277 112.0625 716.25 C114.82741758 715.37686813 117.53426864 714.49886878 120.16015625 713.26171875 C127.74975029 709.77734753 134.80827261 709.47011273 143.0625 709.25 C144.0525 706.94 145.0425 704.63 146.0625 702.25 C149.6925 702.58 153.3225 702.91 157.0625 703.25 C152.39706812 719.30940121 142.91182296 728.84097518 130.65893555 739.77709961 C127.16573195 742.9999926 124.50968574 746.0143115 122.04296875 750.08984375 C117.8933251 756.11494519 112.8489194 758.68908258 106.375 761.8125 C104.22423223 762.9121955 102.07704254 764.01891868 99.93359375 765.1328125 C98.91507324 765.66165039 97.89655273 766.19048828 96.84716797 766.73535156 C91.44627578 769.6730278 86.74258885 773.26904569 82.0625 777.25 C81.40121094 777.70890625 80.73992187 778.1678125 80.05859375 778.640625 C76.94405576 781.03975867 76.16833964 782.56327301 75.55859375 786.51953125 C75.39844356 788.94720483 75.29763473 791.37976029 75.265625 793.8125 C74.93999729 799.3231227 73.42197688 802.95465242 70.0625 807.25 C78.5455978 806.75238118 86.59631961 804.89676341 94.8125 802.8125 C95.50680115 802.63737885 96.20110229 802.46225769 96.91644287 802.28182983 C146.85874557 789.60126138 193.55271027 767.85257885 235.0625 737.25 C235.64435059 736.82122559 236.22620117 736.39245117 236.82568359 735.95068359 C261.16318852 717.8860948 285.67977324 696.35528136 304.0625 672.25 C305.58218922 670.3948955 307.10300162 668.54071046 308.625 666.6875 C311.27852989 663.81620605 311.27852989 663.81620605 312.0625 660.25 C312.7225 660.25 313.3825 660.25 314.0625 660.25 C314.165625 659.610625 314.26875 658.97125 314.375 658.3125 C314.601875 657.631875 314.82875 656.95125 315.0625 656.25 C316.0525 655.92 317.0425 655.59 318.0625 655.25 C319.58683048 653.30500303 320.95568345 651.38745319 322.30859375 649.328125 C322.71582169 648.72080536 323.12304962 648.11348572 323.5426178 647.48776245 C324.87145919 645.49810453 326.18669924 643.49994467 327.5 641.5 C328.17603271 640.47709869 328.17603271 640.47709869 328.86572266 639.43353271 C336.43317821 627.97365639 343.61007385 616.38028453 350.0625 604.25 C350.54058105 603.36344727 351.01866211 602.47689453 351.51123047 601.56347656 C358.17204756 589.11797747 363.82488247 576.36846405 369 563.25 C369.40410599 562.22948547 369.40410599 562.22948547 369.81637573 561.18835449 C372.75743599 553.72214307 375.49307381 546.20540936 377.94140625 538.5625 C378.264188 537.57334595 378.264188 537.57334595 378.5934906 536.56420898 C379.68657771 533.05598927 380.54769791 529.92487171 380.0625 526.25 C377.66390956 523.91369252 377.66390956 523.91369252 375.0625 522.25 Z " fill="#1F2E5B" transform="translate(835.9375,414.75)"/>
<path d="M0 0 C1.51487229 -0.00727508 3.02973643 -0.01647223 4.54458618 -0.02748108 C7.71723068 -0.04227199 10.88849609 -0.03141601 14.06103516 -0.00268555 C18.07417963 0.03131902 22.08341978 -0.00216832 26.09624863 -0.05393028 C42.82096041 -0.23856088 57.94672299 -0.36666414 72.5390625 8.96484375 C71.7018532 19.56949491 71.7018532 19.56949491 69.5390625 22.96484375 C67.4765625 23.58984375 67.4765625 23.58984375 65.5390625 23.96484375 C65.2090625 24.62484375 64.8790625 25.28484375 64.5390625 25.96484375 C63.5903125 26.29484375 62.6415625 26.62484375 61.6640625 26.96484375 C58.0537615 29.27543639 58.10319762 29.70446282 57.2265625 33.65234375 C55.62254169 40.16333947 51.71413798 43.02899376 46.5390625 46.96484375 C45.68634766 47.75955078 45.68634766 47.75955078 44.81640625 48.5703125 C42.10303373 50.95034688 40.47638472 51.97016944 36.7890625 51.94921875 C35.7784375 51.871875 34.7678125 51.79453125 33.7265625 51.71484375 C29.85970871 51.5311682 28.07611946 51.61850304 24.7890625 53.73828125 C23.07541196 55.31086909 21.41135224 56.93918519 19.80078125 58.6171875 C17.79234773 60.70193456 15.93435269 62.07688484 13.5390625 63.65234375 C9.11916508 67.28185952 9.25768967 72.75227693 8.73046875 78.11328125 C8.66730469 79.05429687 8.60414063 79.9953125 8.5390625 80.96484375 C5.2010736 81.71781816 2.14621161 82.07838329 -1.2734375 82.02734375 C-2.06363281 82.01832031 -2.85382813 82.00929688 -3.66796875 82 C-4.25964844 81.98839844 -4.85132813 81.97679687 -5.4609375 81.96484375 C-5.84572266 83.21587891 -5.84572266 83.21587891 -6.23828125 84.4921875 C-10.51878738 97.07428128 -17.74601315 103.99327517 -29.4609375 109.96484375 C-30.151875 110.32835937 -30.8428125 110.691875 -31.5546875 111.06640625 C-36.8658062 113.49013105 -41.03481488 112.89254521 -46.4609375 110.96484375 C-47.80611284 110.32240656 -49.14339209 109.66219324 -50.4609375 108.96484375 C-50.7290625 109.68671875 -50.9971875 110.40859375 -51.2734375 111.15234375 C-52.4609375 113.96484375 -52.4609375 113.96484375 -53.94848633 116.2956543 C-55.52617186 119.07997002 -56.20217875 121.36165952 -56.84765625 124.484375 C-57.06357422 125.50595703 -57.27949219 126.52753906 -57.50195312 127.58007812 C-57.71529297 128.63517578 -57.92863281 129.69027344 -58.1484375 130.77734375 C-58.37337891 131.85177734 -58.59832031 132.92621094 -58.83007812 134.03320312 C-59.38201949 136.67547563 -59.92532841 139.31922091 -60.4609375 141.96484375 C-63.35280375 139.23338453 -64.88579318 136.48421109 -66.6484375 132.90234375 C-67.17824219 131.83886719 -67.70804688 130.77539062 -68.25390625 129.6796875 C-69.4609375 126.96484375 -69.4609375 126.96484375 -69.4609375 124.96484375 C-73.38972407 128.62968074 -73.38972407 128.62968074 -76.4609375 132.96484375 C-75.70764232 135.90269496 -74.49701763 137.912728 -72.7734375 140.40234375 C-71.04163626 143.78347951 -71.42756998 145.34805742 -72.4609375 148.96484375 C-73.40036236 150.99400144 -74.38692135 153.00359687 -75.4609375 154.96484375 C-76.14929688 154.36736328 -76.14929688 154.36736328 -76.8515625 153.7578125 C-77.46515625 153.22800781 -78.07875 152.69820312 -78.7109375 152.15234375 C-79.31421875 151.63027344 -79.9175 151.10820313 -80.5390625 150.5703125 C-81.17328125 150.04050781 -81.8075 149.51070312 -82.4609375 148.96484375 C-83.09386719 148.38863281 -83.72679687 147.81242188 -84.37890625 147.21875 C-87.14727826 145.55149406 -88.43241957 145.95024806 -91.5234375 146.71484375 C-92.38066406 146.9159375 -93.23789062 147.11703125 -94.12109375 147.32421875 C-95.91706168 147.81593618 -97.69442733 148.37600703 -99.4609375 148.96484375 C-102.12760417 146.29817708 -104.79427083 143.63151042 -107.4609375 140.96484375 C-108.07839844 141.53074219 -108.69585938 142.09664062 -109.33203125 142.6796875 C-114.14535039 146.84830027 -117.84154496 149.98350072 -124.36328125 150.14453125 C-128.83238788 149.76170275 -132.35943955 148.65648199 -136.1484375 146.27734375 C-138.29067134 144.78008933 -138.29067134 144.78008933 -140.33203125 145.09375 C-143.30572174 146.31050776 -144.7473087 148.16410293 -146.8359375 150.58984375 C-147.62871094 151.4921875 -148.42148437 152.39453125 -149.23828125 153.32421875 C-150.53731108 154.86753011 -151.81312278 156.43208207 -153.02734375 158.04296875 C-156.89919513 163.11718993 -161.24630253 165.47293615 -167.4609375 166.96484375 C-172.59511253 166.87927417 -175.9581016 165.28543935 -180.4609375 162.96484375 C-180.71035004 159.90277898 -180.93607895 156.84201292 -181.1484375 153.77734375 C-181.22126953 152.91302734 -181.29410156 152.04871094 -181.36914062 151.15820312 C-181.6952256 146.1518397 -181.749944 143.03554237 -178.4609375 138.96484375 C-177.88214844 138.22621094 -177.30335938 137.48757813 -176.70703125 136.7265625 C-176.11019531 136.04207031 -175.51335938 135.35757813 -174.8984375 134.65234375 C-173.99931641 133.60626953 -173.99931641 133.60626953 -173.08203125 132.5390625 C-171.4609375 130.96484375 -171.4609375 130.96484375 -169.4609375 130.96484375 C-169.07035156 130.0845752 -169.07035156 130.0845752 -168.671875 129.18652344 C-167.38878634 126.83246964 -165.96925067 125.31464604 -164.0859375 123.41796875 C-161.26380717 120.2800148 -159.79347627 117.65471137 -158.5234375 113.63671875 C-154.15365942 100.51742302 -148.76039364 94.26144634 -136.70837402 87.99386597 C-132.33453101 85.81013682 -127.90512129 83.78214605 -123.42578125 81.82519531 C-113.27563096 77.34864268 -107.15168026 73.8913348 -101.4609375 63.96484375 C-95.55172456 55.06658644 -88.42373359 50.36050525 -79.2734375 45.33984375 C-78.02168588 44.63606853 -76.77102769 43.93034488 -75.52148438 43.22265625 C-73.66332804 42.17118719 -71.80501544 41.12006266 -69.94451904 40.07273865 C-65.70588883 37.68399641 -61.48508068 35.26947521 -57.30859375 32.7734375 C-56.28644775 32.16814209 -55.26430176 31.56284668 -54.21118164 30.93920898 C-49.41987684 27.4995923 -46.51178032 22.93335919 -43.4609375 17.96484375 C-42.19212193 15.92192251 -40.92135273 13.88021307 -39.6484375 11.83984375 C-38.83439453 10.47472656 -38.83439453 10.47472656 -38.00390625 9.08203125 C-36.4609375 6.96484375 -36.4609375 6.96484375 -33.4609375 5.96484375 C-32.2853125 6.70734375 -32.2853125 6.70734375 -31.0859375 7.46484375 C-28.60708892 9.20677749 -28.60708892 9.20677749 -26.00601196 8.77748108 C-23.05063189 7.83383396 -22.12083929 6.77941258 -20.11474609 4.46264648 C-14.33823441 -0.80297545 -7.35925013 -0.06614877 0 0 Z " fill="#1F2E5B" transform="translate(709.4609375,491.03515625)"/>
<path d="M0 0 C1.14662109 0.14888672 1.14662109 0.14888672 2.31640625 0.30078125 C4.4375 0.6875 4.4375 0.6875 7.4375 1.6875 C7.2209375 3.110625 7.2209375 3.110625 7 4.5625 C6.81030359 5.9371987 6.62301653 7.31223098 6.4375 8.6875 C6.27918701 9.77720093 6.27918701 9.77720093 6.11767578 10.88891602 C5.29915515 17.39877592 5.65722703 23.29290517 6.75 29.75 C6.91588623 30.74427002 7.08177246 31.73854004 7.25268555 32.76293945 C8.9507186 41.50139207 12.5126433 48.10540983 17.48828125 55.38671875 C19.4375 58.6875 19.4375 58.6875 19.12109375 60.77539062 C15.95856659 69.62143089 8.36683202 73.58169701 0.4375 77.6875 C-2.08495492 75.16504508 -4.60214794 72.64586967 -7.0625 70.0625 C-9.44697821 67.7972457 -11.72961756 66.32112887 -14.5625 64.6875 C-13.91947849 62.95991555 -13.27610512 61.23246138 -12.63110352 59.50561523 C-12.08294162 58.03703834 -11.53656976 56.56779211 -10.99194336 55.09790039 C-9.48268251 51.04771505 -7.87243268 47.07971606 -6.125 43.125 C-4.37069876 38.85836611 -4.40400415 36.12840075 -5.5625 31.6875 C-7.5425 31.0275 -9.5225 30.3675 -11.5625 29.6875 C-11.84660823 25.77252431 -12.08384177 21.85607438 -12.3125 17.9375 C-12.39371094 16.82632813 -12.47492187 15.71515625 -12.55859375 14.5703125 C-12.61660156 13.50039063 -12.67460938 12.43046875 -12.734375 11.328125 C-12.7972168 10.34360352 -12.86005859 9.35908203 -12.92480469 8.34472656 C-12.45600649 4.90645188 -11.20342161 3.84669993 -8.5625 1.6875 C-5.50740621 -0.28646716 -3.57554905 -0.50214987 0 0 Z " fill="#20305E" transform="translate(650.5625,769.3125)"/>
<path d="M0 0 C2.3129482 2.3129482 2.49580975 3.47904875 3.125 6.625 C3.29257812 7.44226563 3.46015625 8.25953125 3.6328125 9.1015625 C3.75398437 9.72804688 3.87515625 10.35453125 4 11 C2.71283353 12.00578589 1.42011342 13.00446798 0.125 14 C-0.95394531 14.8353125 -0.95394531 14.8353125 -2.0546875 15.6875 C-4 17 -4 17 -6 17 C-5.67 17.99 -5.34 18.98 -5 20 C-4.91856145 21.62719482 -4.8924698 23.25751719 -4.90234375 24.88671875 C-4.90556641 25.82451172 -4.90878906 26.76230469 -4.91210938 27.72851562 C-4.92048828 28.70498047 -4.92886719 29.68144531 -4.9375 30.6875 C-4.94201172 31.67556641 -4.94652344 32.66363281 -4.95117188 33.68164062 C-4.96295697 36.12115474 -4.97940989 38.56054689 -5 41 C-5.99 41.495 -5.99 41.495 -7 42 C-7.59423993 52.64104064 -6.27502453 59.22163179 0.78637695 67.39306641 C1.73448045 68.45005752 2.69025388 69.50023253 3.65454102 70.54248047 C9.01623162 76.35073539 9.01623162 76.35073539 8.9375 79.5 C7.91057457 82.23846782 6.60418269 84.55885242 5 87 C-2.37545758 84.91974273 -9.83358098 81.70250016 -14 75 C-14 74.34 -14 73.68 -14 73 C-14.66 73 -15.32 73 -16 73 C-17.07745227 61.07106416 -17.37572722 49.81763678 -15.71166992 37.94238281 C-15.02119864 32.82441049 -14.88572404 27.89800436 -15.125 22.74609375 C-14.77149997 14.98013996 -11.81198876 11.1219201 -6.375 6.0625 C-5.45847656 5.17981445 -5.45847656 5.17981445 -4.5234375 4.27929688 C-3.02681108 2.84113243 -1.51490886 1.41889351 0 0 Z " fill="#213160" transform="translate(928,585)"/>
<path d="M0 0 C3.45413901 0.28836732 5.47991403 1.23476217 7.83984375 3.7421875 C9.13236332 7.45818126 9.5256912 9.70785705 8.83984375 13.6171875 C6.42971844 16.94754247 3.71734914 19.30699096 -0.40625 19.98828125 C-2.59765625 19.9921875 -2.59765625 19.9921875 -6.16015625 19.6171875 C-5.52078125 20.2978125 -4.88140625 20.9784375 -4.22265625 21.6796875 C-1.83430695 25.08127589 -1.48138472 27.52152451 -1.16015625 31.6171875 C-2.78107755 32.78951435 -4.40702458 33.9548952 -6.03515625 35.1171875 C-7.39253906 36.09171875 -7.39253906 36.09171875 -8.77734375 37.0859375 C-11.16015625 38.6171875 -11.16015625 38.6171875 -13.16015625 38.6171875 C-13.82015625 45.2171875 -14.48015625 51.8171875 -15.16015625 58.6171875 C-20.16015625 59.6171875 -20.16015625 59.6171875 -23.16015625 57.6171875 C-23.56079102 54.89916992 -23.56079102 54.89916992 -23.6015625 51.47265625 C-23.62798828 50.23837891 -23.65441406 49.00410156 -23.68164062 47.73242188 C-23.69517578 46.43626953 -23.70871094 45.14011719 -23.72265625 43.8046875 C-23.7571792 41.256382 -23.7998329 38.70817054 -23.8515625 36.16015625 C-23.86388916 35.02602295 -23.87621582 33.89188965 -23.88891602 32.72338867 C-24.16020501 29.61662908 -24.99975379 27.47788303 -26.16015625 24.6171875 C-25.48046875 21.06640625 -25.48046875 21.06640625 -24.28515625 17.3046875 C-23.89585937 16.05042969 -23.5065625 14.79617188 -23.10546875 13.50390625 C-22.79351563 12.55128906 -22.4815625 11.59867188 -22.16015625 10.6171875 C-21.38671875 10.73320313 -20.61328125 10.84921875 -19.81640625 10.96875 C-16.35999412 11.26819164 -13.5652363 11.33426716 -10.16015625 10.6171875 C-7.70587094 8.20046778 -5.96917678 5.6416781 -4.0390625 2.796875 C-2.16015625 0.6171875 -2.16015625 0.6171875 0 0 Z " fill="#20305E" transform="translate(815.16015625,548.3828125)"/>
<path d="M0 0 C0 3.3 0 6.6 0 10 C1.258125 9.835 2.51625 9.67 3.8125 9.5 C10.52873539 9.43593416 15.1815921 13.71505869 20 18 C22.90014024 23.80028047 22.10029082 31.68167836 22 38 C18.53570574 37.77131765 15.07428719 37.52869969 11.61328125 37.25390625 C8.20552639 36.96512977 8.20552639 36.96512977 5.60546875 37.02734375 C1.15874474 36.9639485 -1.60837999 35.21338935 -4.9375 32.5 C-10.1930386 26.9109195 -10.05238066 21.1740315 -10 13.890625 C-10 10.6976315 -10.22547034 8.07391458 -11 5 C-11.763125 5.0825 -12.52625 5.165 -13.3125 5.25 C-16 5 -16 5 -17.8125 3.125 C-19 1 -19 1 -19 -1 C-12.28349984 -3.85451257 -6.51787425 -3.05525356 0 0 Z " fill="#21305F" transform="translate(619,665)"/>
<path d="M0 0 C2.01705713 -0.19108962 4.03949594 -0.32574442 6.0625 -0.4375 C7.18785156 -0.51871094 8.31320312 -0.59992188 9.47265625 -0.68359375 C13.46529786 0.090174 13.57765456 0.47205409 15.921875 3.47265625 C18.84418598 6.68927725 21.13414701 7.48227762 25.46665955 7.79780579 C29.0431919 7.91731879 32.60961757 7.91615693 36.1875 7.875 C38.38197373 7.88174704 40.57618473 7.89810078 42.77058411 7.91702271 C44.75351718 7.92906819 46.73655078 7.91803993 48.71948242 7.90576172 C51.38232958 7.9822564 53.48373954 8.19723264 56 9 C57.19869783 12.02071854 58.01550701 14.73318987 58 18 C56.1492127 20.9441919 53.8751405 23.05615501 51 25 C50.34 25 49.68 25 49 25 C47.74335022 22.09399739 47 20.20395416 47 17 C46.22914063 16.93941406 45.45828125 16.87882813 44.6640625 16.81640625 C43.66117188 16.73261719 42.65828125 16.64882813 41.625 16.5625 C40.62726562 16.48128906 39.62953125 16.40007813 38.6015625 16.31640625 C36 16 36 16 34 15 C33.67 16.32 33.34 17.64 33 19 C30.875 19.75 30.875 19.75 28 20 C24.93054466 18.25462343 22.49346035 16.49346035 20 14 C17.22308229 13.85895021 14.50355761 14.00523741 11.7265625 14.125 C8.78995982 13.99037065 7.37558155 13.71286567 5 12 C3.515625 9.6875 3.515625 9.6875 2.25 7 C1.82203125 6.113125 1.3940625 5.22625 0.953125 4.3125 C0 2 0 2 0 0 Z " fill="#21305F" transform="translate(901,509)"/>
<path d="M0 0 C3 1.125 3 1.125 5 2.125 C5.83811779 8.82994229 5.83811779 8.82994229 3.6171875 12.26171875 C1.82013137 14.30382798 -0.07508455 16.20417142 -2 18.125 C-2.70125 19.135625 -3.4025 20.14625 -4.125 21.1875 C-8.98492746 24.4626685 -14.41004928 22.95162522 -20 22.125 C-16.76858786 7.80474201 -16.76858786 7.80474201 -12.51171875 3.76171875 C-10.0469852 2.32425476 -7.66071055 1.14690122 -5 0.125 C-3 -0.875 -3 -0.875 0 0 Z " fill="#223363" transform="translate(628,793.875)"/>
<path d="" fill="#000000" transform="translate(0,0)"/>
<path d="" fill="#000000" transform="translate(0,0)"/>
<path d="" fill="#000000" transform="translate(0,0)"/>
<path d="" fill="#000000" transform="translate(0,0)"/>
<path d="" fill="#000000" transform="translate(0,0)"/>
</svg>
